<svg id="svg" version="1.1" xmlns="http://www.w3.org/2000/svg" xmlns:xlink="http://www.w3.org/1999/xlink" width="400" height="210" viewBox="0, 0, 400,210"><g id="svgg"><path id="path0" d="M0.000 105.042 L 0.000 210.084 200.000 210.084 L 400.000 210.084 400.000 105.042 L 400.000 0.000 200.000 0.000 L 0.000 0.000 0.000 105.042 M165.580 31.214 C 174.729 32.793,182.461 40.081,184.342 48.897 C 184.503 49.655,184.770 49.721,186.239 49.368 C 191.714 48.053,200.884 48.008,206.554 49.267 C 208.680 49.740,208.772 49.718,209.038 48.687 C 213.522 31.316,234.600 25.023,247.710 37.140 C 259.629 48.158,256.575 68.435,241.964 75.286 C 241.300 75.598,240.756 75.889,240.756 75.934 C 240.756 75.979,240.984 76.473,241.263 77.031 C 245.144 84.813,247.394 97.427,246.096 104.119 C 245.974 104.748,246.001 104.777,246.823 104.908 C 248.949 105.249,248.565 107.691,246.349 107.920 L 245.220 108.037 244.562 109.770 C 244.199 110.723,243.581 112.122,243.187 112.878 L 242.470 114.253 243.814 114.824 C 247.412 116.353,246.003 119.315,242.365 117.870 C 241.474 117.516,240.715 117.227,240.677 117.227 C 240.639 117.227,240.150 117.818,239.590 118.540 C 239.030 119.262,238.118 120.357,237.563 120.973 C 236.369 122.299,236.343 122.476,237.237 123.220 C 240.995 126.350,241.777 127.614,240.621 128.687 C 239.580 129.651,237.379 128.396,234.579 125.241 C 234.026 124.618,233.947 124.643,232.376 125.915 C 228.487 129.067,220.983 133.705,218.514 134.485 C 218.148 134.601,218.697 136.512,220.226 140.441 C 221.682 144.185,222.563 146.852,223.001 148.845 C 223.204 149.769,223.397 150.629,223.431 150.756 C 223.464 150.883,224.138 151.045,224.929 151.118 C 228.798 151.472,231.965 154.032,232.969 157.618 L 233.225 158.533 238.829 158.521 C 254.046 158.487,261.765 162.522,261.765 170.508 C 261.765 175.719,258.763 177.542,248.486 178.572 C 239.799 179.443,237.203 180.219,234.755 182.679 C 233.317 184.122,233.073 184.261,232.405 184.013 C 230.866 183.441,233.121 180.345,236.239 178.748 C 238.985 177.342,241.386 176.796,249.475 175.738 C 257.858 174.642,260.201 172.502,257.989 167.966 C 255.742 163.359,245.434 160.914,234.201 162.323 L 233.213 162.446 232.765 163.839 C 231.572 167.543,229.106 171.087,224.242 176.089 C 223.041 177.324,222.059 178.368,222.059 178.409 C 222.059 178.449,223.082 178.479,224.332 178.475 C 228.398 178.460,229.916 180.886,227.488 183.520 C 226.245 184.868,225.547 185.044,220.483 185.286 C 212.882 185.650,211.229 184.880,210.465 180.621 C 210.407 180.300,210.335 180.288,209.874 180.527 C 203.288 183.938,191.845 184.104,184.213 180.898 L 182.817 180.311 182.681 181.175 C 182.106 184.823,180.015 185.677,172.618 185.285 C 167.152 184.996,165.903 184.525,164.996 182.412 C 163.891 179.837,165.716 178.176,169.367 178.435 L 171.284 178.571 170.883 178.121 C 170.663 177.873,170.005 177.187,169.421 176.598 C 161.962 169.066,158.876 162.900,160.159 158.088 C 161.037 154.796,162.825 152.863,166.274 151.478 C 166.616 151.341,167.547 151.174,168.341 151.107 C 169.136 151.041,169.812 150.883,169.845 150.756 C 169.878 150.629,170.019 149.911,170.158 149.160 C 170.589 146.833,173.407 138.942,174.171 137.920 C 174.509 137.469,175.406 135.021,175.298 134.846 C 175.235 134.744,173.981 134.058,172.511 133.322 C 168.350 131.238,163.565 128.160,160.982 125.905 C 159.471 124.586,159.660 124.549,157.521 126.576 C 154.538 129.401,154.050 129.641,152.974 128.814 C 151.810 127.918,152.171 127.064,154.737 124.651 C 156.495 122.997,156.988 122.418,156.828 122.198 C 155.667 120.606,152.795 117.437,152.513 117.437 C 152.315 117.437,151.619 117.673,150.966 117.962 C 149.484 118.617,148.939 118.622,148.343 117.987 C 147.357 116.938,147.805 115.561,149.315 115.003 C 150.856 114.434,150.895 114.374,150.377 113.372 C 150.128 112.893,149.524 111.507,149.034 110.294 L 148.142 108.088 146.459 107.976 C 143.122 107.754,142.737 104.832,146.045 104.832 L 147.269 104.832 147.256 104.149 C 147.248 103.774,147.163 102.663,147.067 101.681 C 146.440 95.315,148.175 86.047,151.385 78.602 C 152.010 77.153,152.451 75.904,152.364 75.827 C 152.277 75.750,151.591 75.372,150.840 74.986 C 143.179 71.050,138.236 62.899,138.236 54.202 C 138.236 39.731,151.298 28.750,165.580 31.214 M158.193 34.022 C 146.226 36.167,138.400 48.620,141.992 59.798 C 142.898 62.614,144.034 64.750,144.360 64.246 C 144.504 64.024,144.577 64.031,144.739 64.284 C 144.899 64.534,144.994 64.544,145.201 64.336 C 145.553 63.985,145.798 64.008,145.798 64.391 C 145.798 64.802,146.196 64.798,146.355 64.384 C 146.424 64.204,146.628 64.110,146.821 64.171 C 147.488 64.381,152.311 64.470,152.311 64.272 C 152.311 64.164,152.225 64.076,152.119 64.076 C 151.859 64.076,150.383 61.886,149.623 60.373 C 146.925 54.997,148.196 48.042,152.556 44.316 C 160.548 37.489,172.148 41.139,174.647 51.267 L 175.105 53.126 176.366 52.545 C 177.059 52.226,178.501 51.643,179.569 51.251 C 181.811 50.427,181.824 50.400,181.084 48.084 C 178.032 38.527,167.873 32.287,158.193 34.022 M228.782 33.949 C 223.439 34.912,219.240 37.358,215.770 41.527 C 214.010 43.643,211.765 48.509,211.765 50.211 C 211.765 50.401,212.123 50.639,212.658 50.804 C 213.149 50.956,214.574 51.510,215.825 52.037 C 218.366 53.106,218.334 53.114,218.671 51.367 C 219.611 46.498,224.121 42.110,229.245 41.081 C 239.692 38.984,248.270 49.625,244.115 59.526 C 243.378 61.282,241.876 63.805,241.412 64.067 C 241.160 64.210,241.133 64.321,241.307 64.498 C 241.482 64.675,241.649 64.600,241.957 64.208 C 242.347 63.713,242.394 63.703,242.728 64.036 C 243.127 64.435,248.082 64.574,248.356 64.194 C 248.440 64.077,248.627 64.105,248.816 64.262 C 249.315 64.676,250.422 62.806,251.338 60.004 C 254.817 49.349,248.342 37.814,236.975 34.418 C 235.640 34.019,230.138 33.704,228.782 33.949 M192.542 51.404 C 186.451 51.799,179.892 53.870,173.529 57.408 C 158.548 65.738,147.546 87.363,150.254 103.154 L 150.508 104.636 157.381 104.613 C 165.012 104.588,164.878 104.566,165.770 106.009 C 166.277 106.830,166.344 106.854,166.728 106.355 C 166.993 106.009,167.017 106.012,167.129 106.408 C 167.245 106.817,167.398 106.826,172.922 106.760 C 177.102 106.710,178.676 106.758,178.899 106.943 C 179.147 107.149,179.202 107.111,179.202 106.732 C 179.202 105.236,181.856 104.457,182.548 105.750 C 182.685 106.005,183.001 106.304,183.250 106.415 C 183.500 106.527,183.769 106.854,183.848 107.143 C 183.984 107.641,183.993 107.643,184.013 107.195 C 184.032 106.766,184.143 106.720,185.242 106.696 C 185.906 106.682,186.922 106.645,187.500 106.615 C 188.868 106.544,189.669 106.701,189.748 107.056 C 189.789 107.243,189.911 107.279,190.100 107.161 C 190.472 106.929,190.220 106.513,189.708 106.513 C 189.492 106.513,189.156 106.353,188.960 106.157 C 188.626 105.823,188.587 105.825,188.315 106.197 C 188.073 106.528,188.025 106.537,188.025 106.255 C 188.025 106.069,188.143 105.872,188.288 105.816 C 188.458 105.749,188.321 105.504,187.896 105.115 C 183.212 100.834,187.714 94.998,196.008 94.600 C 204.829 94.176,210.361 100.286,205.475 105.057 C 204.920 105.599,204.535 106.148,204.591 106.317 C 204.676 106.575,204.640 106.576,204.336 106.325 C 203.927 105.988,203.724 106.080,203.977 106.489 C 204.240 106.915,205.039 106.572,205.055 106.026 L 205.069 105.567 205.251 106.018 C 205.562 106.790,206.995 107.089,207.383 106.463 C 207.461 106.337,207.619 106.434,207.758 106.694 C 208.071 107.279,208.399 107.267,208.420 106.670 C 208.429 106.410,208.484 106.316,208.542 106.460 C 208.690 106.826,209.034 106.789,209.034 106.408 C 209.034 106.234,209.131 106.092,209.249 106.092 C 209.372 106.092,209.324 106.364,209.139 106.723 C 208.891 107.202,208.877 107.351,209.081 107.344 C 209.228 107.340,209.568 106.868,209.836 106.296 C 210.622 104.621,212.236 104.522,213.163 106.091 L 213.536 106.723 219.991 106.723 C 224.394 106.723,226.490 106.795,226.586 106.950 C 226.675 107.093,226.957 106.957,227.349 106.582 L 227.972 105.987 227.904 106.610 C 227.853 107.081,227.927 107.242,228.208 107.272 C 228.464 107.298,228.480 107.279,228.260 107.211 C 227.785 107.064,227.874 106.656,228.354 106.782 C 228.581 106.841,228.759 106.828,228.749 106.754 C 228.617 105.732,229.825 104.584,230.987 104.629 C 231.450 104.646,234.289 104.652,237.297 104.641 L 242.765 104.622 243.070 103.624 C 243.527 102.130,243.470 95.073,242.981 92.437 C 242.225 88.365,241.407 85.050,240.777 83.508 C 240.682 83.277,240.295 82.285,239.916 81.303 C 232.299 61.552,214.016 50.014,192.542 51.404 M171.639 77.135 C 174.135 78.182,175.611 79.463,176.565 81.408 C 181.847 92.176,168.115 101.712,162.300 91.314 C 158.260 84.089,164.745 74.242,171.639 77.135 M226.366 77.209 C 232.749 79.308,234.535 89.966,229.134 93.736 C 228.767 93.993,228.416 94.274,228.355 94.361 C 227.430 95.672,223.077 96.115,220.976 95.111 C 211.167 90.426,216.157 73.853,226.366 77.209 M187.471 105.987 C 187.343 106.321,186.975 106.425,186.975 106.127 C 186.975 105.905,187.204 105.672,187.423 105.672 C 187.516 105.672,187.537 105.814,187.471 105.987 M206.759 106.350 C 206.644 106.465,206.436 106.490,206.298 106.405 C 206.108 106.287,206.114 106.209,206.323 106.080 C 206.681 105.859,207.033 106.076,206.759 106.350 M195.732 112.387 C 194.956 113.700,192.280 115.383,190.498 115.679 C 189.052 115.919,188.973 116.647,190.129 119.090 C 192.179 123.421,197.242 125.134,199.625 122.302 C 201.222 120.404,201.973 115.631,200.730 115.275 C 199.745 114.992,197.862 113.608,197.164 112.653 C 196.405 111.614,196.209 111.578,195.732 112.387 M187.273 139.338 C 187.326 139.598,187.427 140.945,187.498 142.332 C 187.742 147.098,188.881 149.454,191.164 149.909 C 193.927 150.460,195.378 151.224,195.378 152.128 C 195.378 152.330,195.482 152.561,195.609 152.639 C 195.947 152.848,195.661 153.992,195.128 154.559 L 194.675 155.042 195.925 155.042 C 197.467 155.042,198.016 154.578,197.805 153.453 C 197.524 151.955,198.582 150.743,200.630 150.218 C 203.181 149.564,203.825 149.280,204.436 148.542 C 205.236 147.575,205.882 145.469,205.882 143.827 C 205.882 143.114,205.981 141.742,206.102 140.778 C 206.369 138.652,206.456 138.745,204.581 139.147 C 199.168 140.307,193.759 140.312,188.761 139.162 C 187.134 138.788,187.160 138.785,187.273 139.338 M175.143 147.216 C 174.682 148.009,173.993 151.751,173.838 154.307 C 173.760 155.594,173.779 155.692,173.985 155.095 C 174.228 154.391,174.616 154.124,174.444 154.779 C 174.355 155.120,174.593 155.143,177.667 155.087 C 181.285 155.022,181.725 154.961,181.338 154.573 C 181.151 154.386,181.032 154.388,180.840 154.580 C 180.542 154.878,180.042 154.914,180.042 154.637 C 180.042 154.530,180.200 154.412,180.392 154.375 C 180.647 154.325,180.385 153.964,179.429 153.046 C 178.032 151.705,176.529 149.610,175.827 148.024 C 175.393 147.041,175.305 146.938,175.143 147.216 M217.647 148.570 C 216.950 149.996,215.392 152.041,214.209 153.083 C 213.448 153.753,213.304 153.980,213.506 154.195 C 213.712 154.414,213.639 154.438,213.130 154.320 C 212.523 154.179,212.514 154.188,212.874 154.556 C 213.368 155.059,219.041 155.337,219.221 154.867 C 219.525 154.070,219.097 150.489,218.446 148.380 L 218.172 147.496 217.647 148.570 M197.833 154.702 C 197.695 155.060,199.140 155.759,199.712 155.612 C 200.026 155.531,200.006 155.506,199.610 155.487 C 199.338 155.473,198.929 155.226,198.702 154.937 C 198.235 154.344,197.995 154.279,197.833 154.702 M211.712 154.952 C 211.394 155.124,211.134 155.357,211.134 155.469 C 211.134 155.767,211.366 155.718,211.797 155.328 C 212.090 155.063,212.244 155.040,212.469 155.227 C 212.630 155.360,212.927 155.406,213.128 155.329 C 213.453 155.204,213.437 155.157,212.997 154.912 C 212.384 154.572,212.414 154.571,211.712 154.952 " stroke="none" fill="#fbfbfb" fill-rule="evenodd"></path><path id="path1" d="M167.247 77.542 C 163.179 78.780,160.585 83.830,161.664 88.409 C 163.496 96.180,172.444 97.748,176.147 90.946 C 179.849 84.143,174.084 75.461,167.247 77.542 M222.164 77.451 C 214.940 79.428,213.887 90.754,220.588 94.400 C 227.770 98.307,235.021 88.779,230.603 81.240 C 228.938 78.398,225.062 76.658,222.164 77.451 M193.067 95.493 C 191.910 95.802,191.487 95.963,190.140 96.608 C 184.385 99.363,185.900 105.374,192.770 107.049 C 193.569 107.244,194.387 107.486,194.587 107.588 C 197.568 109.100,205.476 105.757,206.626 102.498 C 208.234 97.940,199.943 93.657,193.067 95.493 M146.288 105.238 C 145.459 105.303,144.747 105.404,144.705 105.462 C 144.663 105.520,144.511 105.722,144.367 105.911 C 144.020 106.368,144.416 107.271,145.036 107.437 C 145.282 107.503,149.693 107.559,154.838 107.560 C 165.002 107.563,165.126 107.549,165.126 106.411 C 165.126 105.264,165.064 105.254,157.390 105.224 C 153.499 105.209,149.748 105.179,149.055 105.158 C 148.361 105.136,147.116 105.172,146.288 105.238 M236.883 105.186 C 229.864 105.264,229.622 105.305,229.622 106.408 C 229.622 107.553,229.704 107.563,238.462 107.560 C 247.890 107.557,248.241 107.501,247.790 106.079 C 247.494 105.147,246.655 105.078,236.883 105.186 M162.920 109.990 C 161.880 110.392,160.840 110.810,160.609 110.920 C 160.167 111.131,155.047 113.112,153.256 113.766 C 150.878 114.634,148.357 115.938,148.219 116.371 C 147.844 117.553,148.884 118.256,150.279 117.762 C 152.200 117.081,155.167 115.916,159.874 113.995 C 162.589 112.887,164.897 111.979,165.001 111.978 C 165.471 111.971,166.597 110.872,166.597 110.421 C 166.597 109.106,165.530 108.981,162.920 109.990 M227.468 109.471 C 226.410 110.087,227.152 111.448,228.887 112.071 C 229.464 112.278,230.221 112.573,230.567 112.726 C 232.113 113.406,238.709 116.064,240.231 116.620 C 241.155 116.958,242.101 117.317,242.332 117.419 C 244.209 118.247,245.030 118.166,245.291 117.126 C 245.550 116.093,244.436 115.354,240.231 113.770 C 239.538 113.509,238.782 113.220,238.550 113.129 C 228.011 108.957,228.228 109.028,227.468 109.471 M165.516 115.148 C 165.128 115.506,164.338 116.241,163.761 116.780 C 163.183 117.320,161.623 118.760,160.294 119.980 C 158.965 121.200,157.396 122.663,156.808 123.232 C 156.219 123.800,155.061 124.915,154.234 125.709 C 152.650 127.231,152.467 127.678,153.151 128.361 C 153.988 129.198,154.416 128.994,157.038 126.502 C 157.731 125.844,158.629 125.034,159.034 124.703 C 159.816 124.063,164.843 119.384,166.859 117.421 C 168.982 115.353,167.679 113.148,165.516 115.148 M225.768 114.880 C 225.027 115.699,225.299 116.198,227.679 118.393 C 228.921 119.539,230.741 121.239,231.723 122.171 C 232.705 123.103,233.887 124.180,234.349 124.565 C 234.811 124.950,235.804 125.847,236.555 126.559 C 239.048 128.924,239.540 129.158,240.336 128.361 C 241.066 127.632,240.856 127.186,238.931 125.363 C 237.927 124.412,236.623 123.162,236.033 122.584 C 235.443 122.006,234.539 121.155,234.025 120.693 C 233.510 120.230,231.784 118.647,230.190 117.174 C 227.123 114.340,226.533 114.034,225.768 114.880 " stroke="none" fill="#414141" fill-rule="evenodd"></path><path id="path2" d="M157.458 31.496 C 149.315 33.056,143.266 38.096,139.914 46.113 C 139.701 46.622,139.197 48.424,138.826 50.000 C 136.643 59.280,142.281 70.457,151.438 75.001 C 152.952 75.752,152.952 75.752,151.991 77.833 C 150.014 82.113,148.090 88.888,147.605 93.277 C 147.167 97.245,147.093 99.991,147.364 102.311 C 147.518 103.640,147.617 104.774,147.582 104.832 C 147.547 104.890,148.164 104.937,148.952 104.937 C 149.874 104.937,150.327 104.862,150.223 104.727 C 149.517 103.804,149.398 97.831,149.999 93.354 C 154.134 62.508,183.480 43.674,212.077 53.512 C 221.302 56.685,231.322 64.637,235.590 72.172 C 235.784 72.514,236.320 73.409,236.782 74.160 C 239.673 78.861,241.890 84.888,243.104 91.349 C 243.867 95.411,243.856 104.345,243.087 104.820 C 242.982 104.884,243.574 104.937,244.400 104.937 L 245.903 104.937 245.947 104.149 C 246.521 93.911,245.125 86.011,241.251 77.558 C 240.360 75.613,240.291 75.833,242.076 74.938 C 254.212 68.859,258.541 53.567,251.395 42.017 C 245.975 33.254,234.861 29.047,225.105 32.065 C 221.820 33.081,218.272 35.177,215.576 37.695 C 212.918 40.178,209.976 45.414,209.346 48.785 C 209.147 49.849,208.903 50.001,207.773 49.768 C 200.361 48.241,192.256 48.221,185.951 49.715 C 184.359 50.092,184.406 50.130,183.826 48.004 C 180.731 36.655,168.968 29.290,157.458 31.496 M166.071 33.958 C 174.086 35.962,181.351 43.305,181.772 49.824 C 181.834 50.797,182.164 50.579,178.481 52.002 C 170.714 55.003,163.446 60.484,158.358 67.177 C 157.679 68.071,157.007 68.944,156.865 69.118 C 156.723 69.291,156.013 70.301,155.286 71.361 L 153.966 73.290 152.647 72.698 C 139.553 66.823,136.795 48.896,147.465 39.017 C 152.416 34.434,159.870 32.406,166.071 33.958 M236.975 34.162 C 255.327 38.900,258.091 64.461,241.119 72.490 C 239.390 73.308,239.312 73.289,238.378 71.838 C 235.642 67.587,231.217 62.471,227.836 59.654 C 225.566 57.762,219.973 53.992,219.437 53.992 C 219.400 53.992,218.580 53.625,217.615 53.177 C 216.651 52.729,214.916 52.011,213.761 51.583 C 211.110 50.599,211.227 50.763,211.767 48.816 C 214.826 37.790,225.960 31.317,236.975 34.162 M168.855 77.039 C 169.115 77.089,169.540 77.089,169.800 77.039 C 170.060 76.989,169.848 76.948,169.328 76.948 C 168.808 76.948,168.595 76.989,168.855 77.039 M223.477 77.039 C 223.737 77.089,224.162 77.089,224.422 77.039 C 224.682 76.989,224.470 76.948,223.950 76.948 C 223.430 76.948,223.217 76.989,223.477 77.039 M229.307 79.412 C 229.876 79.989,230.389 80.462,230.446 80.462 C 230.504 80.462,230.086 79.989,229.517 79.412 C 228.948 78.834,228.435 78.361,228.377 78.361 C 228.319 78.361,228.738 78.834,229.307 79.412 M163.854 79.359 L 163.130 80.147 163.918 79.423 C 164.651 78.749,164.802 78.571,164.642 78.571 C 164.607 78.571,164.252 78.926,163.854 79.359 M218.372 79.464 L 217.542 80.357 218.435 79.527 C 219.265 78.754,219.424 78.571,219.265 78.571 C 219.231 78.571,218.829 78.973,218.372 79.464 M161.203 86.239 C 161.204 87.048,161.242 87.353,161.288 86.918 C 161.333 86.482,161.332 85.820,161.286 85.447 C 161.240 85.074,161.202 85.431,161.203 86.239 M215.805 85.504 C 215.805 85.909,215.848 86.074,215.901 85.872 C 215.954 85.670,215.954 85.339,215.901 85.137 C 215.848 84.934,215.805 85.100,215.805 85.504 M215.805 86.975 C 215.805 87.379,215.848 87.545,215.901 87.342 C 215.954 87.140,215.954 86.809,215.901 86.607 C 215.848 86.405,215.805 86.570,215.805 86.975 M163.857 93.120 C 164.372 93.669,164.821 94.118,164.855 94.118 C 165.012 94.118,164.846 93.929,163.918 93.058 L 162.920 92.122 163.857 93.120 M218.479 93.120 C 219.349 94.047,219.538 94.214,219.538 94.056 C 219.538 94.023,219.089 93.574,218.540 93.058 L 217.542 92.122 218.479 93.120 M168.750 95.529 C 169.068 95.577,169.588 95.577,169.905 95.529 C 170.223 95.480,169.963 95.441,169.328 95.441 C 168.692 95.441,168.432 95.480,168.750 95.529 M223.372 95.529 C 223.690 95.577,224.210 95.577,224.527 95.529 C 224.845 95.480,224.585 95.441,223.950 95.441 C 223.314 95.441,223.054 95.480,223.372 95.529 M187.804 97.847 L 187.080 98.634 187.868 97.910 C 188.601 97.237,188.752 97.059,188.592 97.059 C 188.557 97.059,188.202 97.413,187.804 97.847 M206.990 101.261 C 206.990 101.780,207.031 101.993,207.081 101.733 C 207.131 101.473,207.131 101.048,207.081 100.788 C 207.031 100.528,206.990 100.741,206.990 101.261 M187.815 104.727 C 188.207 105.131,188.575 105.462,188.633 105.462 C 188.691 105.462,188.417 105.131,188.025 104.727 C 187.633 104.322,187.265 103.992,187.207 103.992 C 187.150 103.992,187.423 104.322,187.815 104.727 M180.190 105.676 C 178.756 106.804,180.144 111.340,182.604 113.563 C 184.510 115.285,187.590 116.131,190.021 115.601 C 190.683 115.457,190.393 115.421,188.655 115.430 C 184.004 115.454,180.385 112.267,179.921 107.737 C 179.625 104.845,182.042 104.737,182.449 107.624 C 183.199 112.937,189.709 114.823,193.284 110.762 C 194.454 109.433,195.029 107.556,194.263 107.566 C 194.076 107.569,194.074 107.608,194.256 107.724 C 194.862 108.110,193.413 110.692,192.066 111.625 C 188.199 114.306,182.563 111.514,182.563 106.918 C 182.563 105.638,181.168 104.907,180.190 105.676 M211.022 105.454 C 210.387 105.709,210.157 106.093,210.011 107.143 C 209.939 107.663,209.816 108.316,209.739 108.594 C 209.646 108.926,209.674 109.052,209.820 108.962 C 209.943 108.886,210.109 108.256,210.189 107.562 C 210.408 105.678,211.325 105.004,212.319 105.997 C 212.818 106.496,212.844 106.621,212.705 107.836 C 212.095 113.172,206.450 116.857,201.533 115.129 C 199.989 114.586,199.861 114.725,201.349 115.329 C 203.994 116.403,207.681 115.609,210.154 113.433 C 213.298 110.665,213.995 104.262,211.022 105.454 M229.342 105.812 C 229.151 106.003,229.164 106.885,229.359 107.005 C 229.446 107.059,229.517 106.781,229.517 106.388 C 229.517 105.994,229.509 105.672,229.499 105.672 C 229.490 105.672,229.419 105.735,229.342 105.812 M148.885 109.243 C 149.655 111.386,151.109 114.304,151.354 114.197 C 151.476 114.144,152.214 113.897,152.994 113.647 C 154.349 113.214,154.959 112.880,153.915 113.142 C 153.391 113.273,151.250 109.435,151.183 108.244 C 151.157 107.789,151.082 107.767,149.775 107.820 L 148.394 107.876 148.885 109.243 M198.003 108.298 C 198.829 112.153,203.720 114.188,207.173 112.114 C 208.242 111.473,209.677 109.892,209.652 109.385 C 209.645 109.249,209.527 109.322,209.389 109.545 C 206.682 113.941,200.901 113.742,198.620 109.174 C 198.199 108.330,197.927 107.945,198.003 108.298 M242.095 108.351 C 242.067 108.963,241.014 111.360,240.217 112.625 L 239.742 113.380 240.857 113.731 C 241.470 113.925,242.088 114.223,242.230 114.394 C 242.372 114.566,242.595 114.703,242.725 114.699 C 242.856 114.696,242.798 114.597,242.596 114.480 C 242.258 114.283,242.278 114.173,242.858 113.024 C 243.203 112.340,243.770 111.044,244.119 110.144 C 244.467 109.245,244.847 108.343,244.962 108.141 C 245.153 107.805,245.039 107.773,243.647 107.774 C 242.130 107.774,242.122 107.777,242.095 108.351 M162.080 109.986 C 161.554 110.239,161.537 110.269,161.975 110.162 C 162.570 110.016,163.239 109.675,162.920 109.680 C 162.805 109.681,162.426 109.819,162.080 109.986 M226.701 110.714 C 226.692 111.127,227.092 111.635,227.665 111.940 C 228.429 112.348,228.514 112.212,227.776 111.763 C 227.397 111.531,227.001 111.130,226.897 110.871 C 226.793 110.611,226.704 110.541,226.701 110.714 M194.823 112.730 C 193.926 113.668,193.124 114.270,192.197 114.699 C 191.462 115.039,190.990 115.321,191.147 115.326 C 191.797 115.348,193.970 113.943,195.070 112.790 C 196.180 111.626,196.639 111.318,196.639 111.736 C 196.639 112.063,198.749 114.070,199.435 114.397 C 200.089 114.708,200.093 114.707,199.580 114.358 C 199.291 114.161,198.469 113.403,197.752 112.673 C 196.187 111.077,196.406 111.072,194.823 112.730 M163.550 112.717 C 163.025 112.971,163.008 113.000,163.445 112.893 C 164.041 112.747,164.710 112.406,164.391 112.411 C 164.275 112.413,163.897 112.551,163.550 112.717 M160.924 113.761 C 160.636 113.926,160.494 114.061,160.609 114.061 C 160.725 114.061,161.056 113.926,161.345 113.761 C 161.633 113.595,161.775 113.460,161.660 113.460 C 161.544 113.460,161.213 113.595,160.924 113.761 M167.007 114.289 C 169.335 114.838,168.916 115.693,163.998 120.424 L 159.718 124.541 161.109 125.674 C 164.575 128.497,169.414 131.570,173.386 133.471 C 176.035 134.739,176.003 134.645,174.730 137.395 C 172.294 142.660,171.073 146.147,170.077 150.683 C 169.958 151.225,169.876 151.263,168.746 151.299 L 167.542 151.338 168.645 151.415 C 169.846 151.499,169.857 151.517,169.616 152.976 C 169.491 153.729,169.462 153.750,168.240 153.965 C 165.980 154.363,164.422 155.431,163.473 157.232 C 161.241 161.470,163.564 166.528,171.436 174.569 C 174.740 177.944,175.129 178.732,174.236 180.244 C 173.472 181.538,172.307 181.729,168.645 181.161 C 167.945 181.052,167.857 181.088,167.857 181.482 C 167.857 182.163,168.539 182.248,174.020 182.248 L 179.028 182.248 179.430 181.752 C 179.723 181.390,179.832 180.925,179.832 180.031 C 179.832 178.499,179.905 178.459,181.253 179.271 C 182.165 179.820,182.358 180.041,182.384 180.565 L 182.416 181.197 182.503 180.620 C 182.611 179.906,182.456 179.894,184.713 180.797 C 192.047 183.731,201.220 183.735,208.537 180.808 C 210.849 179.883,210.711 179.888,210.729 180.725 C 210.737 181.100,210.830 181.597,210.936 181.828 C 211.063 182.107,211.086 181.845,211.002 181.044 C 210.885 179.919,210.910 179.826,211.373 179.638 C 211.646 179.527,212.147 179.247,212.487 179.016 C 213.320 178.448,213.445 178.589,213.449 180.107 C 213.454 182.323,213.747 182.470,218.067 182.422 C 223.829 182.360,225.998 182.021,225.284 181.296 C 225.101 181.110,224.598 181.115,223.182 181.315 C 219.720 181.805,218.567 181.032,218.674 178.290 C 218.692 177.823,219.285 177.091,221.394 174.928 C 226.058 170.148,227.702 168.101,229.096 165.336 C 231.903 159.769,230.149 154.813,225.082 153.988 C 223.635 153.752,223.701 153.817,223.577 152.526 L 223.476 151.471 224.606 151.435 L 225.735 151.400 224.490 151.278 L 223.245 151.155 222.881 149.475 C 222.286 146.724,220.915 142.680,219.519 139.556 C 219.301 139.070,219.027 138.242,218.909 137.718 C 218.792 137.193,218.517 136.295,218.299 135.721 C 217.828 134.481,217.776 134.548,220.111 133.419 C 224.005 131.535,228.864 128.469,231.840 126.016 C 233.042 125.025,233.748 124.580,233.989 124.660 C 234.267 124.751,234.258 124.720,233.948 124.521 C 233.728 124.380,232.360 123.111,230.909 121.702 C 229.457 120.293,228.233 119.176,228.188 119.221 C 228.142 119.267,228.896 120.066,229.862 120.998 L 231.618 122.693 230.797 123.424 C 229.849 124.270,226.355 126.681,226.078 126.681 C 225.976 126.681,225.775 126.821,225.633 126.993 C 225.406 127.266,221.905 127.305,197.521 127.307 C 176.583 127.309,169.631 127.370,169.518 127.553 C 169.342 127.838,167.857 127.226,167.857 126.869 C 167.857 126.752,167.772 126.708,167.668 126.773 C 167.504 126.874,165.484 125.591,163.025 123.824 C 161.594 122.796,161.497 123.017,164.738 119.946 C 168.573 116.314,168.487 116.411,168.487 115.707 C 168.487 114.911,167.641 114.069,166.869 114.097 C 166.320 114.117,166.329 114.130,167.007 114.289 M164.638 115.492 C 163.924 116.155,163.301 116.722,163.253 116.752 C 163.205 116.782,163.205 116.845,163.253 116.893 C 163.301 116.940,163.979 116.373,164.760 115.632 C 165.541 114.892,166.125 114.286,166.058 114.286 C 165.990 114.286,165.351 114.828,164.638 115.492 M229.784 116.530 C 231.139 117.764,232.650 119.154,233.141 119.620 C 233.632 120.085,234.034 120.407,234.034 120.335 C 234.034 120.178,227.612 114.286,227.441 114.286 C 227.375 114.286,228.429 115.295,229.784 116.530 M158.298 114.818 C 157.773 115.071,157.755 115.101,158.193 114.994 C 158.789 114.848,159.458 114.507,159.139 114.512 C 159.023 114.513,158.645 114.651,158.298 114.818 M236.345 115.441 C 236.633 115.606,236.964 115.741,237.080 115.741 C 237.195 115.741,237.054 115.606,236.765 115.441 C 236.476 115.276,236.145 115.141,236.029 115.141 C 235.914 115.141,236.056 115.276,236.345 115.441 M225.019 115.724 C 225.001 116.180,227.661 119.258,227.881 119.038 C 227.926 118.993,227.389 118.410,226.688 117.742 C 225.984 117.070,225.330 116.237,225.226 115.879 C 225.066 115.328,225.035 115.305,225.019 115.724 M154.897 116.288 C 154.413 116.557,153.609 116.868,153.111 116.979 C 152.613 117.091,152.412 117.192,152.664 117.204 C 152.928 117.217,153.324 117.517,153.596 117.910 C 154.183 118.755,155.029 119.765,156.225 121.046 C 157.203 122.093,157.295 122.352,156.880 122.893 C 156.736 123.081,156.820 123.024,157.068 122.766 C 157.316 122.508,157.552 122.220,157.593 122.125 C 157.634 122.031,158.708 121.043,159.979 119.931 C 161.250 118.818,162.479 117.688,162.710 117.419 C 162.941 117.151,162.237 117.724,161.146 118.693 L 159.162 120.454 157.635 118.788 C 155.791 116.776,155.456 116.232,155.892 115.956 C 156.519 115.559,155.744 115.818,154.897 116.288 M237.592 116.056 C 237.822 116.333,235.675 119.141,234.489 120.112 C 234.216 120.336,234.293 120.494,235.047 121.268 C 235.528 121.761,236.119 122.400,236.360 122.689 C 236.788 123.202,236.791 123.203,236.475 122.707 C 236.163 122.217,236.192 122.154,237.362 120.817 C 238.028 120.055,238.946 118.960,239.402 118.382 C 239.858 117.805,240.309 117.275,240.403 117.205 C 240.498 117.136,240.000 116.864,239.296 116.600 C 238.592 116.337,237.965 116.040,237.903 115.939 C 237.841 115.839,237.690 115.756,237.567 115.756 C 237.421 115.756,237.430 115.860,237.592 116.056 M147.899 116.794 C 147.899 117.134,147.974 117.458,148.065 117.515 C 148.157 117.571,148.194 117.293,148.147 116.897 C 148.044 116.014,147.899 115.954,147.899 116.794 M148.714 118.126 C 148.815 118.227,149.170 118.276,149.502 118.235 C 150.057 118.166,150.042 118.151,149.317 118.051 C 148.866 117.988,148.608 118.020,148.714 118.126 M238.437 124.632 C 239.307 125.560,239.496 125.727,239.496 125.569 C 239.496 125.535,239.047 125.086,238.498 124.571 L 237.500 123.634 238.437 124.632 M154.412 125.105 C 153.901 125.625,153.531 126.050,153.589 126.050 C 153.647 126.050,154.112 125.625,154.622 125.105 C 155.132 124.585,155.502 124.160,155.445 124.160 C 155.387 124.160,154.922 124.585,154.412 125.105 M235.819 126.261 C 236.271 126.723,236.687 127.101,236.745 127.101 C 236.803 127.101,236.481 126.723,236.029 126.261 C 235.578 125.798,235.162 125.420,235.104 125.420 C 235.046 125.420,235.368 125.798,235.819 126.261 M156.723 126.996 C 156.212 127.516,155.842 127.941,155.900 127.941 C 155.958 127.941,156.422 127.516,156.933 126.996 C 157.443 126.476,157.813 126.050,157.756 126.050 C 157.698 126.050,157.233 126.476,156.723 126.996 M206.609 139.090 C 206.549 139.187,206.412 140.722,206.305 142.501 C 206.079 146.254,205.645 147.755,204.431 148.975 C 203.702 149.709,203.220 149.910,200.463 150.628 C 197.685 151.352,197.383 153.826,199.924 155.056 C 206.067 158.030,213.948 154.961,217.455 148.229 C 218.140 146.913,218.402 146.829,218.691 147.834 C 221.055 156.056,219.402 166.163,214.888 171.081 C 214.240 171.788,213.655 172.076,213.655 171.689 C 213.655 171.601,212.970 171.613,212.132 171.716 C 209.995 171.977,181.696 172.116,181.446 171.867 C 181.323 171.743,181.097 171.761,180.844 171.916 C 180.511 172.120,180.401 172.098,180.230 171.796 C 179.943 171.291,179.563 171.331,179.727 171.849 C 179.931 172.493,179.682 172.361,178.571 171.238 C 173.778 166.394,172.092 156.381,174.616 147.742 C 175.172 145.840,175.108 145.820,176.366 148.269 C 178.862 153.131,183.325 156.066,188.340 156.144 C 195.282 156.251,198.016 151.759,191.832 150.408 C 188.423 149.663,187.385 147.671,187.091 141.306 L 186.965 138.600 187.863 138.721 C 188.357 138.787,189.895 139.034,191.282 139.270 C 195.522 139.991,200.029 139.807,205.357 138.695 C 206.185 138.522,206.833 138.727,206.609 139.090 M166.071 151.778 C 165.260 152.150,165.637 152.155,166.597 151.786 C 167.001 151.630,167.190 151.500,167.017 151.496 C 166.843 151.492,166.418 151.619,166.071 151.778 M226.672 151.791 C 227.188 151.951,227.642 152.050,227.681 152.011 C 227.788 151.903,226.458 151.468,226.072 151.485 C 225.887 151.492,226.157 151.630,226.672 151.791 M163.709 153.023 C 162.571 153.861,161.893 154.599,161.468 155.462 C 161.383 155.636,161.533 155.495,161.802 155.150 C 162.580 154.152,163.912 152.967,164.653 152.615 C 165.029 152.437,165.336 152.248,165.336 152.196 C 165.336 151.937,164.849 152.184,163.709 153.023 M227.941 152.186 C 227.941 152.233,228.358 152.515,228.867 152.814 C 230.082 153.526,231.041 154.553,231.878 156.039 C 232.641 157.396,232.804 157.391,232.115 156.032 C 231.235 154.295,227.941 151.260,227.941 152.186 M160.932 156.289 C 160.666 156.786,160.653 156.995,160.899 156.843 C 161.084 156.729,161.373 155.882,161.227 155.882 C 161.184 155.882,161.051 156.065,160.932 156.289 M160.425 157.799 C 160.352 158.168,160.330 158.509,160.378 158.557 C 160.425 158.605,160.529 158.346,160.609 157.983 C 160.689 157.620,160.710 157.279,160.657 157.226 C 160.603 157.172,160.499 157.430,160.425 157.799 M232.580 157.458 C 232.573 157.574,232.703 158.115,232.869 158.661 C 233.049 159.255,233.133 160.149,233.077 160.882 L 232.984 162.109 234.087 161.916 C 235.830 161.609,244.037 161.485,245.588 161.741 C 246.339 161.865,247.568 162.075,248.319 162.207 C 249.070 162.338,250.040 162.492,250.474 162.548 C 250.908 162.604,251.315 162.734,251.379 162.837 C 251.443 162.941,251.641 163.025,251.819 163.025 C 252.136 163.025,252.803 163.288,254.555 164.102 C 255.038 164.327,255.903 164.933,256.477 165.449 C 257.668 166.520,257.687 166.528,257.830 165.983 C 257.951 165.517,257.615 165.190,255.704 163.917 C 252.233 161.606,241.374 160.108,235.319 161.104 C 233.728 161.366,233.366 161.235,233.445 160.424 L 233.508 159.769 239.706 159.769 C 245.918 159.769,246.194 159.792,250.105 160.645 C 251.857 161.028,253.845 161.601,253.992 161.767 C 254.049 161.832,254.646 162.166,255.318 162.508 C 258.355 164.055,261.137 168.191,260.578 170.329 C 260.326 171.293,259.911 170.806,259.546 169.118 C 259.346 168.193,259.102 167.437,259.003 167.437 C 258.904 167.437,258.821 167.319,258.819 167.174 C 258.816 167.030,258.639 166.683,258.424 166.404 L 258.034 165.896 257.890 166.349 C 257.801 166.629,257.872 166.982,258.075 167.271 C 258.255 167.529,258.403 167.909,258.403 168.114 C 258.403 168.319,258.480 168.487,258.573 168.487 C 258.897 168.487,259.161 170.896,258.934 171.769 C 258.678 172.752,257.602 174.160,257.108 174.160 C 256.915 174.160,256.726 174.240,256.688 174.339 C 256.577 174.621,254.195 175.376,252.604 175.632 C 251.807 175.760,250.683 175.953,250.105 176.060 C 249.527 176.167,248.251 176.316,247.269 176.391 C 246.287 176.466,245.389 176.597,245.273 176.682 C 245.158 176.767,244.449 176.898,243.697 176.974 C 242.108 177.134,240.318 177.523,240.032 177.769 C 239.922 177.864,239.637 177.941,239.398 177.941 C 239.160 177.941,238.611 178.130,238.180 178.362 C 237.748 178.593,237.395 178.733,237.395 178.673 C 237.395 178.177,233.291 181.011,233.034 181.685 C 232.960 181.879,232.729 182.221,232.521 182.445 C 232.073 182.927,232.042 183.268,232.416 183.579 C 232.834 183.925,233.500 183.653,233.902 182.971 C 234.101 182.634,234.614 182.098,235.042 181.779 C 235.469 181.461,235.867 181.152,235.924 181.093 C 236.163 180.852,237.991 180.042,238.298 180.042 C 238.481 180.042,238.689 179.947,238.761 179.832 C 238.832 179.716,239.102 179.622,239.361 179.622 C 239.620 179.622,239.926 179.528,240.041 179.413 C 240.156 179.298,240.860 179.143,241.606 179.069 C 242.352 178.995,243.057 178.861,243.172 178.772 C 243.288 178.683,244.375 178.550,245.588 178.475 C 246.801 178.401,248.409 178.255,249.160 178.151 C 252.996 177.621,255.368 177.224,255.462 177.097 C 255.520 177.018,255.977 176.890,256.479 176.812 C 258.031 176.570,260.714 174.506,260.714 173.555 C 260.714 173.417,260.853 173.093,261.022 172.835 C 261.499 172.107,261.655 170.140,261.324 169.020 C 261.100 168.262,261.004 168.135,260.873 168.429 C 260.769 168.664,260.737 168.490,260.785 167.962 C 260.837 167.402,260.734 166.912,260.477 166.492 C 260.264 166.145,260.004 165.667,259.898 165.430 C 259.502 164.541,256.862 162.373,255.263 161.623 C 253.111 160.613,253.014 160.575,251.576 160.184 C 250.882 159.995,250.028 159.755,249.678 159.650 C 248.352 159.253,241.230 158.797,237.310 158.859 C 233.028 158.926,233.314 158.995,232.809 157.773 C 232.689 157.484,232.586 157.342,232.580 157.458 M160.182 160.714 C 160.218 161.812,160.355 162.946,160.486 163.235 C 160.715 163.741,160.719 163.737,160.586 163.130 C 160.511 162.784,160.374 161.649,160.282 160.609 L 160.116 158.718 160.182 160.714 M232.707 162.685 C 232.628 162.891,232.569 163.217,232.576 163.410 C 232.585 163.642,232.658 163.589,232.792 163.253 C 232.904 162.974,232.963 162.648,232.923 162.529 C 232.883 162.409,232.786 162.480,232.707 162.685 M160.728 164.076 C 160.729 164.249,160.872 164.627,161.046 164.916 L 161.362 165.441 161.223 164.916 C 161.021 164.154,160.727 163.654,160.728 164.076 M232.166 164.519 C 232.037 164.890,231.968 165.231,232.013 165.276 C 232.058 165.321,232.200 165.054,232.330 164.683 C 232.459 164.311,232.528 163.971,232.483 163.926 C 232.438 163.881,232.296 164.148,232.166 164.519 M231.104 166.754 C 230.760 167.419,230.270 168.293,230.016 168.697 C 229.753 169.115,229.697 169.297,229.887 169.118 C 230.268 168.759,232.033 165.546,231.849 165.546 C 231.783 165.546,231.448 166.090,231.104 166.754 M162.301 167.458 C 162.599 168.047,162.886 168.487,162.937 168.435 C 163.037 168.335,162.002 166.387,161.848 166.387 C 161.798 166.387,162.002 166.869,162.301 167.458 M163.661 169.597 C 164.663 171.137,166.233 172.957,169.061 175.862 C 171.872 178.749,171.852 178.720,171.166 178.824 C 170.695 178.895,170.695 178.896,171.143 179.023 C 172.424 179.386,172.044 178.746,169.256 175.844 C 166.759 173.246,165.782 172.121,163.489 169.205 C 163.224 168.868,163.301 169.045,163.661 169.597 M228.992 170.168 C 228.745 170.515,228.590 170.798,228.648 170.798 C 228.706 170.798,228.955 170.515,229.202 170.168 C 229.449 169.821,229.603 169.538,229.545 169.538 C 229.488 169.538,229.238 169.821,228.992 170.168 M226.971 172.637 C 226.178 173.532,224.630 175.193,223.531 176.328 C 221.054 178.886,220.983 179.000,221.891 178.963 C 222.384 178.943,222.448 178.908,222.111 178.843 C 221.434 178.713,221.393 178.772,224.212 175.858 C 226.687 173.299,228.718 171.008,228.512 171.008 C 228.457 171.008,227.764 171.741,226.971 172.637 M259.134 174.074 C 258.117 175.316,256.028 176.471,254.799 176.471 C 254.302 176.471,254.726 176.086,255.468 175.863 C 255.934 175.724,256.260 175.521,256.193 175.412 C 256.126 175.304,256.212 175.269,256.385 175.336 C 256.956 175.555,259.106 173.824,259.552 172.785 C 259.716 172.404,259.735 172.401,259.819 172.751 C 259.872 172.973,259.590 173.518,259.134 174.074 M167.700 178.724 C 168.133 178.770,168.842 178.770,169.275 178.724 C 169.709 178.679,169.354 178.642,168.487 178.642 C 167.621 178.642,167.266 178.679,167.700 178.724 M224.002 178.724 C 224.435 178.770,225.144 178.770,225.578 178.724 C 226.011 178.679,225.657 178.642,224.790 178.642 C 223.923 178.642,223.569 178.679,224.002 178.724 M165.630 179.496 C 164.135 180.991,165.717 184.767,167.791 184.655 C 167.885 184.649,167.606 184.457,167.171 184.228 C 164.923 183.041,164.418 180.303,166.242 179.191 C 166.611 178.967,166.784 178.783,166.628 178.782 C 166.472 178.782,166.023 179.103,165.630 179.496 M226.786 179.027 C 227.017 179.156,227.352 179.365,227.531 179.494 C 227.710 179.622,227.634 179.514,227.362 179.254 C 227.090 178.994,226.754 178.784,226.616 178.788 C 226.478 178.791,226.555 178.899,226.786 179.027 M228.113 180.791 C 228.279 182.210,227.394 183.687,226.045 184.246 C 225.694 184.391,225.449 184.553,225.500 184.604 C 225.795 184.898,227.581 183.447,228.065 182.521 C 228.383 181.913,228.470 180.344,228.195 180.174 C 228.104 180.118,228.067 180.395,228.113 180.791 M182.169 181.513 C 182.151 181.686,182.085 182.064,182.020 182.353 C 181.920 182.807,181.936 182.827,182.142 182.504 C 182.273 182.299,182.340 181.921,182.290 181.664 C 182.241 181.407,182.186 181.339,182.169 181.513 M211.138 182.538 C 211.133 182.912,212.880 184.664,213.256 184.664 C 213.414 184.664,213.203 184.433,212.787 184.150 C 212.371 183.867,211.830 183.324,211.586 182.942 C 211.342 182.560,211.140 182.379,211.138 182.538 M181.388 183.433 C 181.167 183.681,180.704 184.059,180.357 184.273 C 180.011 184.487,179.807 184.663,179.905 184.663 C 180.245 184.665,181.200 183.994,181.575 183.491 C 182.042 182.862,181.927 182.827,181.388 183.433 M168.592 184.888 C 169.212 185.032,174.676 185.120,174.265 184.979 C 174.149 184.939,172.684 184.869,171.008 184.824 C 169.333 184.778,168.246 184.807,168.592 184.888 M178.361 184.874 C 177.643 185.025,177.641 185.029,178.256 185.042 C 178.603 185.049,179.076 184.973,179.307 184.874 C 179.812 184.657,179.393 184.657,178.361 184.874 M213.971 184.876 C 214.373 185.047,216.130 185.165,215.949 185.008 C 215.901 184.967,215.341 184.880,214.706 184.815 C 213.987 184.742,213.709 184.765,213.971 184.876 M220.798 184.874 L 217.962 184.998 220.798 185.029 C 222.358 185.046,224.013 184.982,224.475 184.886 L 225.315 184.712 224.475 184.731 C 224.013 184.742,222.358 184.806,220.798 184.874 " stroke="none" fill="#a5a5a5" fill-rule="evenodd"></path><path id="path3" d="M167.256 77.330 C 166.275 77.629,166.538 77.772,167.553 77.491 C 168.379 77.263,170.946 77.340,171.744 77.617 L 172.164 77.763 171.744 77.497 C 171.210 77.159,168.186 77.046,167.256 77.330 M221.878 77.330 C 220.897 77.629,221.159 77.772,222.175 77.491 C 223.001 77.263,225.568 77.340,226.366 77.617 L 226.786 77.763 226.366 77.497 C 225.832 77.159,222.808 77.046,221.878 77.330 M165.104 78.451 C 164.218 79.102,162.915 80.529,162.502 81.303 C 162.276 81.724,162.540 81.438,163.552 80.164 C 164.003 79.596,164.825 78.849,165.379 78.505 C 165.933 78.160,166.387 77.845,166.387 77.805 C 166.387 77.603,165.982 77.807,165.104 78.451 M173.121 78.335 C 174.275 79.080,175.398 80.269,176.124 81.513 C 176.428 82.033,176.678 82.358,176.679 82.237 C 176.687 81.280,173.322 77.731,172.406 77.731 C 172.286 77.731,172.607 78.003,173.121 78.335 M227.742 78.324 C 228.256 78.650,229.140 79.430,229.706 80.057 C 230.273 80.684,230.634 81.008,230.510 80.777 C 230.059 79.939,227.524 77.731,227.013 77.731 C 226.901 77.731,227.229 77.998,227.742 78.324 M218.855 79.191 C 217.793 80.161,216.374 82.366,216.396 83.013 C 216.401 83.170,216.683 82.700,217.021 81.969 C 217.426 81.094,218.071 80.214,218.907 79.395 C 220.452 77.884,220.420 77.760,218.855 79.191 M231.436 83.088 C 231.657 84.088,231.958 84.688,231.805 83.824 C 231.733 83.419,231.589 82.946,231.486 82.773 C 231.362 82.567,231.345 82.676,231.436 83.088 M176.920 83.403 C 176.920 83.577,177.002 83.908,177.101 84.139 C 177.215 84.403,177.281 84.442,177.281 84.244 C 177.281 84.070,177.200 83.739,177.101 83.508 C 176.987 83.244,176.920 83.205,176.920 83.403 M161.438 84.127 C 161.359 84.549,161.341 84.941,161.399 84.999 C 161.457 85.056,161.569 84.759,161.648 84.337 C 161.727 83.915,161.745 83.523,161.687 83.465 C 161.629 83.408,161.517 83.705,161.438 84.127 M216.101 83.868 C 216.030 84.132,215.982 84.632,215.994 84.979 C 216.009 85.414,216.070 85.286,216.190 84.565 C 216.374 83.468,216.320 83.049,216.101 83.868 M177.376 86.239 C 177.377 86.933,177.416 87.191,177.463 86.813 C 177.510 86.436,177.509 85.869,177.461 85.553 C 177.413 85.237,177.375 85.546,177.376 86.239 M231.998 86.239 C 231.999 86.933,232.038 87.191,232.085 86.813 C 232.132 86.436,232.131 85.869,232.083 85.553 C 232.035 85.237,231.997 85.546,231.998 86.239 M215.981 87.623 C 215.989 88.017,216.078 88.529,216.178 88.761 C 216.295 89.031,216.317 88.806,216.239 88.130 C 216.094 86.881,215.960 86.617,215.981 87.623 M161.359 87.833 C 161.367 88.112,161.460 88.529,161.564 88.761 C 161.697 89.053,161.716 88.926,161.627 88.340 C 161.478 87.365,161.338 87.099,161.359 87.833 M176.996 88.655 C 176.916 89.019,176.898 89.363,176.956 89.421 C 177.014 89.479,177.126 89.229,177.206 88.866 C 177.286 88.502,177.304 88.158,177.246 88.100 C 177.188 88.042,177.076 88.292,176.996 88.655 M231.551 88.904 C 231.426 89.395,231.360 89.834,231.404 89.878 C 231.449 89.922,231.592 89.561,231.723 89.076 C 231.853 88.590,231.919 88.152,231.869 88.102 C 231.819 88.051,231.676 88.412,231.551 88.904 M216.401 89.601 C 216.401 89.716,216.537 90.047,216.702 90.336 C 216.867 90.625,217.002 90.767,217.002 90.651 C 217.002 90.536,216.867 90.205,216.702 89.916 C 216.537 89.627,216.401 89.485,216.401 89.601 M176.091 91.038 C 175.457 92.233,174.091 93.608,172.802 94.347 C 171.582 95.047,171.667 95.166,172.928 94.523 C 174.305 93.821,177.059 90.644,176.647 90.233 C 176.601 90.186,176.351 90.549,176.091 91.038 M231.092 90.280 C 231.092 90.403,230.758 91.000,230.350 91.607 C 229.942 92.214,229.758 92.585,229.942 92.433 C 230.412 92.043,231.381 90.344,231.223 90.187 C 231.151 90.115,231.092 90.157,231.092 90.280 M217.352 91.557 C 217.572 91.939,217.978 92.459,218.254 92.712 C 218.550 92.983,218.432 92.741,217.968 92.122 C 216.977 90.800,216.848 90.682,217.352 91.557 M163.866 92.932 C 164.386 93.487,165.000 94.040,165.231 94.162 C 165.462 94.285,165.604 94.343,165.546 94.291 C 165.488 94.240,164.874 93.687,164.181 93.062 L 162.920 91.925 163.866 92.932 M229.167 93.019 C 229.128 93.107,228.824 93.391,228.491 93.649 C 228.157 93.907,227.972 94.118,228.078 94.118 C 228.372 94.118,229.764 92.876,229.482 92.866 C 229.347 92.861,229.205 92.930,229.167 93.019 M219.100 93.564 C 219.380 93.908,220.168 94.429,220.168 94.270 C 220.168 94.229,219.861 93.972,219.485 93.697 C 219.063 93.388,218.916 93.337,219.100 93.564 M226.891 94.643 C 226.602 94.808,226.460 94.943,226.576 94.943 C 226.691 94.943,227.022 94.808,227.311 94.643 C 227.600 94.478,227.742 94.343,227.626 94.343 C 227.511 94.343,227.180 94.478,226.891 94.643 M193.804 95.089 C 190.809 95.629,186.711 98.169,186.777 99.445 C 186.784 99.577,186.902 99.496,187.040 99.265 C 187.177 99.034,187.675 98.466,188.146 98.004 C 188.880 97.283,189.492 96.906,191.398 96.001 C 194.843 94.366,201.972 95.210,204.798 97.588 C 205.173 97.903,205.528 98.114,205.586 98.055 C 205.782 97.859,203.602 96.411,202.333 95.896 C 199.741 94.843,196.740 94.559,193.804 95.089 M167.332 95.158 C 167.735 95.341,168.860 95.460,168.680 95.301 C 168.632 95.259,168.214 95.166,167.752 95.096 C 167.166 95.007,167.039 95.026,167.332 95.158 M170.588 95.168 C 170.166 95.303,170.145 95.337,170.483 95.342 C 170.714 95.346,171.092 95.267,171.324 95.168 C 171.859 94.938,171.307 94.938,170.588 95.168 M221.954 95.168 C 222.185 95.267,222.563 95.346,222.794 95.342 C 223.132 95.337,223.111 95.303,222.689 95.168 C 221.971 94.938,221.418 94.938,221.954 95.168 M225.210 95.168 C 224.788 95.303,224.767 95.337,225.105 95.342 C 225.336 95.346,225.714 95.267,225.945 95.168 C 226.481 94.938,225.928 94.938,225.210 95.168 M206.286 99.434 C 206.584 100.042,206.858 100.470,206.895 100.385 C 206.985 100.173,206.327 98.811,206.004 98.544 C 205.862 98.425,205.989 98.826,206.286 99.434 M186.479 100.254 C 186.408 100.519,186.361 101.066,186.374 101.471 C 186.391 102.032,186.436 101.933,186.564 101.051 C 186.740 99.838,186.697 99.440,186.479 100.254 M187.139 103.676 C 187.261 103.908,187.719 104.428,188.158 104.832 C 188.883 105.500,188.265 104.705,187.016 103.361 C 186.962 103.304,187.017 103.445,187.139 103.676 M147.945 104.947 C 148.116 105.119,149.570 105.178,149.821 105.023 C 149.976 104.927,149.618 104.859,148.981 104.864 C 148.370 104.869,147.903 104.906,147.945 104.947 M243.592 104.920 C 243.708 104.970,244.544 105.074,245.450 105.151 C 246.658 105.254,247.205 105.399,247.499 105.692 C 247.719 105.912,247.899 106.000,247.899 105.887 C 247.899 105.412,246.863 105.055,245.166 104.945 C 244.185 104.881,243.477 104.870,243.592 104.920 M144.798 105.182 C 144.652 105.241,144.434 105.493,144.314 105.743 C 144.098 106.190,144.100 106.191,144.430 105.777 C 144.688 105.454,145.114 105.329,146.280 105.234 L 147.794 105.110 146.429 105.093 C 145.678 105.083,144.944 105.123,144.798 105.182 M152.626 105.192 C 158.975 105.339,164.658 105.343,164.569 105.200 C 164.515 105.113,161.239 105.062,157.288 105.087 C 153.337 105.112,151.239 105.159,152.626 105.192 M229.832 105.462 C 229.601 105.693,229.412 106.119,229.412 106.408 C 229.412 107.777,229.385 107.773,238.498 107.770 C 246.965 107.767,247.641 107.706,247.843 106.933 C 247.895 106.734,247.801 106.773,247.588 107.038 C 247.263 107.444,246.961 107.460,238.828 107.517 C 229.662 107.582,229.622 107.577,229.622 106.408 C 229.622 105.303,229.861 105.263,236.883 105.200 L 243.382 105.141 236.817 105.091 C 230.497 105.044,230.236 105.058,229.832 105.462 M165.050 106.117 C 165.283 107.568,165.336 107.559,155.678 107.589 C 150.995 107.604,147.542 107.675,148.004 107.747 C 150.298 108.105,164.677 107.683,165.006 107.248 C 165.370 106.765,165.420 106.128,165.129 105.672 C 164.990 105.454,164.966 105.592,165.050 106.117 M180.334 105.938 C 179.807 106.353,179.788 106.437,179.921 107.737 C 180.679 115.136,189.590 118.102,194.873 112.714 C 196.479 111.076,196.319 111.096,197.434 112.390 C 200.856 116.364,206.415 116.632,210.125 113.002 C 212.316 110.858,213.476 107.154,212.319 105.997 C 211.351 105.030,210.421 105.674,210.197 107.467 C 209.452 113.434,201.683 115.019,198.657 109.821 C 197.903 108.525,197.768 107.832,198.249 107.727 C 198.461 107.682,197.848 107.686,196.887 107.736 C 195.727 107.798,194.975 107.741,194.649 107.566 C 194.380 107.422,194.032 107.355,193.876 107.417 C 193.713 107.482,193.788 107.537,194.053 107.546 C 195.653 107.604,193.724 110.998,191.358 112.285 C 187.696 114.279,183.045 111.845,182.449 107.624 C 182.190 105.789,181.363 105.129,180.334 105.938 M144.982 107.582 C 145.142 107.684,145.699 107.761,146.218 107.753 C 147.339 107.737,147.140 107.636,145.717 107.498 C 145.085 107.436,144.803 107.469,144.982 107.582 M164.076 109.371 C 163.713 109.593,163.680 109.650,163.971 109.555 C 165.102 109.185,165.773 109.194,166.234 109.583 L 166.702 109.979 166.301 109.506 C 165.830 108.949,164.859 108.890,164.076 109.371 M227.112 109.592 C 226.612 110.228,226.694 110.801,227.378 111.450 L 227.821 111.870 227.461 111.433 C 226.529 110.302,227.277 109.082,228.758 109.320 C 229.283 109.404,229.420 109.380,229.202 109.241 C 228.570 108.838,227.574 109.005,227.112 109.592 M229.622 109.514 C 229.622 109.659,232.384 110.753,232.488 110.649 C 232.534 110.603,232.073 110.372,231.464 110.135 C 230.855 109.898,230.192 109.638,229.989 109.557 C 229.787 109.475,229.622 109.456,229.622 109.514 M161.450 110.407 C 160.924 110.660,160.907 110.689,161.345 110.582 C 161.940 110.436,162.609 110.095,162.290 110.100 C 162.174 110.102,161.796 110.240,161.450 110.407 M159.874 111.046 L 159.349 111.362 159.874 111.225 C 160.163 111.149,160.489 111.003,160.599 110.901 C 160.920 110.601,160.459 110.693,159.874 111.046 M165.867 111.461 C 165.343 111.880,165.316 111.941,165.703 111.840 C 165.956 111.773,166.274 111.585,166.410 111.422 C 166.830 110.915,166.523 110.937,165.867 111.461 M233.844 111.209 C 234.027 111.415,236.612 112.407,236.711 112.309 C 236.782 112.238,236.210 111.996,234.139 111.224 C 233.908 111.138,233.775 111.131,233.844 111.209 M157.879 111.793 C 156.734 112.257,156.306 112.543,157.142 112.285 C 157.914 112.047,159.382 111.375,159.139 111.371 C 159.023 111.369,158.456 111.559,157.879 111.793 M228.151 111.939 C 228.325 112.046,228.703 112.197,228.992 112.275 C 229.357 112.372,229.421 112.356,229.202 112.220 C 229.028 112.113,228.650 111.962,228.361 111.885 C 227.996 111.787,227.932 111.804,228.151 111.939 M164.076 112.306 L 163.550 112.623 164.076 112.483 C 164.838 112.281,165.337 111.987,164.916 111.989 C 164.743 111.989,164.364 112.132,164.076 112.306 M155.060 112.870 C 154.435 113.116,154.016 113.348,154.130 113.386 C 154.243 113.424,154.849 113.222,155.477 112.937 C 156.876 112.302,156.612 112.259,155.060 112.870 M230.042 112.694 C 230.627 113.047,231.088 113.139,230.767 112.839 C 230.657 112.736,230.331 112.590,230.042 112.515 L 229.517 112.377 230.042 112.694 M237.185 112.570 C 237.358 112.677,237.736 112.828,238.025 112.905 C 238.390 113.002,238.454 112.986,238.235 112.851 C 238.062 112.743,237.684 112.593,237.395 112.515 C 237.030 112.418,236.966 112.434,237.185 112.570 M160.242 113.805 C 159.232 114.225,158.442 114.605,158.488 114.650 C 158.566 114.729,162.190 113.294,162.377 113.111 C 162.608 112.885,161.920 113.109,160.242 113.805 M231.110 113.109 C 231.291 113.283,233.898 114.282,233.973 114.206 C 234.016 114.163,233.432 113.880,232.675 113.576 C 231.375 113.056,230.910 112.917,231.110 113.109 M238.738 113.200 C 238.822 113.335,239.050 113.448,239.246 113.451 C 239.441 113.454,240.246 113.732,241.033 114.068 C 241.821 114.404,242.358 114.549,242.226 114.389 C 242.093 114.230,241.354 113.891,240.583 113.637 C 239.812 113.382,239.047 113.124,238.884 113.064 C 238.695 112.994,238.642 113.044,238.738 113.200 M152.153 113.891 C 151.547 114.124,151.050 114.398,151.050 114.499 C 151.050 114.600,151.547 114.465,152.153 114.200 C 152.760 113.934,153.398 113.663,153.571 113.598 C 153.852 113.492,153.852 113.478,153.571 113.473 C 153.398 113.470,152.760 113.658,152.153 113.891 M166.099 114.452 C 166.042 114.543,166.305 114.582,166.682 114.538 C 168.437 114.333,168.527 115.796,166.859 117.421 C 164.436 119.782,159.597 124.264,158.912 124.783 C 158.525 125.075,158.205 125.395,158.201 125.493 C 158.188 125.802,159.551 124.599,163.979 120.391 C 168.591 116.009,168.822 115.671,167.857 114.706 C 167.444 114.292,166.299 114.127,166.099 114.452 M225.630 114.706 C 225.391 114.945,225.222 115.375,225.239 115.704 C 225.267 116.271,225.269 116.272,225.363 115.756 C 225.736 113.708,226.767 114.011,230.190 117.174 C 231.784 118.647,233.514 120.230,234.033 120.693 C 234.553 121.155,235.349 121.912,235.802 122.374 L 236.626 123.214 236.124 122.479 C 235.847 122.075,235.293 121.460,234.891 121.113 C 233.588 119.988,229.757 116.546,228.535 115.402 C 227.203 114.156,226.378 113.958,225.630 114.706 M234.244 114.348 C 234.244 114.398,234.693 114.609,235.242 114.816 C 235.790 115.024,237.018 115.559,237.970 116.005 C 238.921 116.451,240.009 116.865,240.386 116.924 C 240.859 116.999,240.680 116.875,239.811 116.524 C 239.118 116.244,237.794 115.687,236.870 115.286 C 235.041 114.492,234.244 114.207,234.244 114.348 M156.197 115.466 C 155.273 115.878,154.044 116.396,153.466 116.618 C 152.526 116.978,152.495 117.009,153.171 116.910 C 153.586 116.850,154.578 116.489,155.376 116.108 C 156.175 115.728,157.159 115.263,157.563 115.075 C 157.967 114.887,158.204 114.729,158.088 114.725 C 157.973 114.720,157.122 115.054,156.197 115.466 M163.655 116.620 C 162.558 117.647,160.753 119.267,159.645 120.220 C 158.537 121.174,157.472 122.237,157.278 122.584 C 156.941 123.189,156.942 123.197,157.297 122.792 C 157.501 122.560,158.803 121.333,160.189 120.066 C 161.576 118.798,163.183 117.318,163.761 116.775 C 164.338 116.233,165.039 115.592,165.317 115.351 C 165.596 115.110,165.785 114.877,165.737 114.833 C 165.690 114.789,164.753 115.593,163.655 116.620 M148.792 115.544 C 148.416 115.773,148.109 116.074,148.109 116.214 C 148.109 116.369,148.211 116.338,148.372 116.134 C 148.516 115.951,148.918 115.653,149.265 115.472 C 149.611 115.291,149.800 115.139,149.685 115.135 C 149.569 115.131,149.168 115.315,148.792 115.544 M245.002 115.863 C 245.084 115.990,245.243 116.325,245.356 116.608 C 245.486 116.933,245.566 116.995,245.575 116.777 C 245.582 116.588,245.423 116.253,245.221 116.032 C 245.018 115.812,244.920 115.736,245.002 115.863 M226.458 117.486 C 227.087 118.147,227.647 118.641,227.703 118.585 C 227.760 118.529,227.576 118.280,227.296 118.031 C 225.548 116.482,225.430 116.406,226.458 117.486 M241.176 117.087 C 241.176 117.141,241.482 117.292,241.854 117.422 C 242.227 117.552,242.440 117.572,242.327 117.466 C 242.088 117.242,241.176 116.942,241.176 117.087 M227.941 118.760 C 227.941 118.819,228.624 119.515,229.459 120.306 C 230.294 121.097,231.500 122.269,232.138 122.912 C 232.776 123.554,233.540 124.230,233.836 124.413 C 234.131 124.597,235.147 125.475,236.094 126.366 C 237.041 127.256,237.815 127.936,237.815 127.875 C 237.815 127.739,235.686 125.715,233.666 123.930 C 232.828 123.190,231.197 121.699,230.042 120.618 C 228.886 119.536,227.941 118.700,227.941 118.760 M236.765 123.162 C 236.765 123.229,237.394 123.883,238.164 124.615 C 238.933 125.347,239.831 126.202,240.159 126.516 C 241.544 127.840,240.083 129.472,238.526 128.341 L 237.920 127.900 238.510 128.446 C 239.985 129.812,241.782 127.957,240.389 126.506 C 239.341 125.415,236.765 123.038,236.765 123.162 M154.664 125.042 C 153.939 125.742,153.375 126.344,153.409 126.379 C 153.444 126.413,154.065 125.868,154.790 125.168 C 155.515 124.468,156.079 123.866,156.044 123.832 C 156.010 123.797,155.389 124.342,154.664 125.042 M156.555 126.933 C 155.830 127.633,155.265 128.235,155.300 128.269 C 155.335 128.304,155.956 127.759,156.681 127.059 C 157.405 126.358,157.970 125.757,157.935 125.722 C 157.901 125.688,157.279 126.232,156.555 126.933 M152.731 128.139 C 152.731 128.844,154.394 129.225,154.849 128.624 C 155.085 128.311,155.083 128.296,154.832 128.519 C 154.395 128.909,153.627 128.837,153.151 128.361 C 152.920 128.130,152.731 128.030,152.731 128.139 M166.492 151.802 C 160.629 153.904,158.555 160.284,161.820 166.176 C 162.044 166.581,162.430 167.290,162.678 167.752 C 163.788 169.822,165.757 172.223,169.627 176.226 C 172.099 178.783,172.480 179.511,171.065 178.973 C 168.407 177.962,165.126 179.200,165.126 181.213 C 165.126 183.807,166.799 184.639,172.549 184.907 C 179.570 185.233,181.449 184.641,182.114 181.892 C 182.527 180.188,182.466 180.001,181.253 179.271 C 179.905 178.459,179.832 178.499,179.832 180.031 C 179.832 180.925,179.723 181.390,179.430 181.752 L 179.028 182.248 174.020 182.248 C 168.539 182.248,167.857 182.163,167.857 181.482 C 167.857 181.088,167.945 181.052,168.645 181.161 C 172.307 181.729,173.472 181.538,174.236 180.244 C 175.129 178.732,174.740 177.944,171.436 174.569 C 163.564 166.528,161.241 161.470,163.473 157.232 C 164.422 155.431,165.980 154.363,168.240 153.965 C 169.554 153.734,169.735 153.478,169.746 151.838 C 169.749 151.368,167.764 151.345,166.492 151.802 M223.577 152.526 C 223.701 153.817,223.635 153.752,225.082 153.988 C 230.149 154.813,231.903 159.769,229.096 165.336 C 227.702 168.101,226.058 170.148,221.394 174.928 C 219.285 177.091,218.692 177.823,218.674 178.290 C 218.567 181.032,219.720 181.805,223.182 181.315 C 224.598 181.115,225.101 181.110,225.284 181.296 C 225.998 182.021,223.829 182.360,218.067 182.422 C 213.747 182.470,213.454 182.323,213.449 180.107 C 213.445 178.589,213.320 178.448,212.487 179.016 C 212.147 179.247,211.646 179.527,211.373 179.638 C 210.267 180.087,211.301 183.243,212.872 184.214 C 214.377 185.144,224.106 185.233,225.887 184.332 C 228.550 182.986,228.997 179.951,226.675 178.989 C 226.212 178.797,225.337 178.754,223.621 178.839 C 220.777 178.979,220.784 179.166,223.529 176.328 C 228.700 170.983,231.332 167.301,232.362 163.971 C 232.505 163.508,232.704 162.894,232.805 162.605 C 234.507 157.719,229.855 151.471,224.515 151.471 L 223.476 151.471 223.577 152.526 " stroke="none" fill="#7c7c7c" fill-rule="evenodd"></path><path id="path4" d="M157.563 31.188 C 146.228 33.334,138.236 42.851,138.236 54.202 C 138.236 62.899,143.179 71.050,150.840 74.986 C 151.591 75.372,152.277 75.750,152.364 75.827 C 152.451 75.904,152.010 77.153,151.385 78.602 C 148.175 86.047,146.440 95.315,147.067 101.681 C 147.163 102.663,147.248 103.774,147.256 104.149 L 147.269 104.832 146.045 104.832 C 144.973 104.832,144.758 104.904,144.312 105.410 L 143.803 105.987 144.341 105.515 C 144.775 105.135,145.132 105.042,146.167 105.042 C 147.767 105.042,147.700 105.196,147.364 102.311 C 146.796 97.441,147.817 89.527,149.762 83.718 C 150.927 80.239,151.144 79.666,151.991 77.833 C 152.952 75.752,152.952 75.752,151.438 75.001 C 142.281 70.457,136.643 59.280,138.826 50.000 C 139.509 47.099,139.703 46.523,140.775 44.223 C 149.654 25.166,178.283 27.681,183.826 48.004 C 184.406 50.131,184.360 50.094,185.951 49.709 C 186.687 49.531,188.093 49.267,189.076 49.122 C 190.058 48.978,190.654 48.827,190.400 48.787 C 190.146 48.746,189.059 48.869,187.984 49.060 C 184.272 49.717,184.519 49.727,184.347 48.922 C 181.844 37.198,169.386 28.950,157.563 31.188 M227.206 31.299 C 218.371 33.082,211.325 39.826,209.038 48.687 C 208.772 49.718,208.680 49.740,206.554 49.267 C 202.803 48.434,195.247 48.039,191.912 48.502 C 191.334 48.582,193.319 48.656,196.324 48.667 C 201.774 48.686,203.172 48.820,207.773 49.768 C 208.903 50.001,209.147 49.849,209.346 48.785 C 210.441 42.927,215.798 36.176,221.410 33.580 C 224.469 32.165,225.348 31.878,228.046 31.417 C 246.484 28.266,260.906 47.952,252.388 64.645 C 250.149 69.032,246.404 72.770,242.076 74.938 C 240.291 75.833,240.360 75.613,241.251 77.558 C 245.107 85.971,246.559 94.163,245.955 104.097 C 245.908 104.862,245.950 104.939,246.429 104.957 C 246.929 104.977,246.930 104.973,246.460 104.889 C 246.028 104.811,245.982 104.715,246.094 104.133 C 247.392 97.410,245.148 84.821,241.263 77.031 C 240.984 76.473,240.756 75.979,240.756 75.934 C 240.756 75.889,241.300 75.598,241.964 75.286 C 255.029 69.161,259.202 51.973,250.479 40.224 C 245.182 33.092,235.922 29.540,227.206 31.299 M159.769 33.532 C 138.925 35.541,133.713 64.203,152.647 72.698 L 153.966 73.290 155.286 71.361 C 156.013 70.301,156.723 69.291,156.865 69.118 C 157.007 68.944,157.679 68.071,158.358 67.177 C 163.446 60.484,170.714 55.003,178.481 52.002 C 182.164 50.579,181.834 50.797,181.772 49.824 C 181.741 49.346,181.471 48.269,181.171 47.429 C 177.974 38.466,169.005 32.642,159.769 33.532 M229.517 33.608 C 221.067 34.522,214.070 40.517,211.767 48.816 C 211.227 50.763,211.110 50.599,213.761 51.583 C 214.916 52.011,216.651 52.729,217.615 53.177 C 218.580 53.625,219.400 53.992,219.437 53.992 C 219.473 53.992,220.455 54.553,221.618 55.240 C 227.901 58.949,233.920 64.910,238.378 71.838 C 239.312 73.289,239.390 73.308,241.119 72.490 C 248.902 68.808,253.508 60.145,252.317 51.429 C 250.800 40.331,240.659 32.404,229.517 33.608 M166.702 34.410 C 173.550 36.292,178.961 41.436,181.084 48.084 C 181.824 50.400,181.811 50.427,179.569 51.251 C 178.501 51.643,177.059 52.226,176.366 52.545 L 175.105 53.126 174.647 51.267 C 172.148 41.139,160.548 37.489,152.556 44.316 C 148.196 48.042,146.925 54.997,149.623 60.373 C 150.383 61.886,151.859 64.076,152.119 64.076 C 152.225 64.076,152.311 64.164,152.311 64.272 C 152.311 64.470,147.488 64.381,146.821 64.171 C 146.628 64.110,146.424 64.204,146.355 64.384 C 146.196 64.798,145.798 64.802,145.798 64.391 C 145.798 64.008,145.553 63.985,145.201 64.336 C 144.994 64.544,144.899 64.534,144.739 64.284 C 144.577 64.031,144.504 64.024,144.360 64.246 C 144.034 64.750,142.898 62.614,141.992 59.798 C 138.400 48.620,146.226 36.167,158.193 34.022 C 159.860 33.723,165.067 33.961,166.702 34.410 M236.975 34.418 C 248.342 37.814,254.817 49.349,251.338 60.004 C 250.422 62.806,249.315 64.676,248.816 64.262 C 248.627 64.105,248.440 64.077,248.356 64.194 C 248.082 64.574,243.127 64.435,242.728 64.036 C 242.394 63.703,242.347 63.713,241.957 64.208 C 241.649 64.600,241.482 64.675,241.307 64.498 C 241.133 64.321,241.160 64.210,241.412 64.067 C 241.876 63.805,243.378 61.282,244.115 59.526 C 248.270 49.625,239.692 38.984,229.245 41.081 C 224.121 42.110,219.611 46.498,218.671 51.367 C 218.334 53.114,218.366 53.106,215.825 52.037 C 214.574 51.510,213.149 50.956,212.658 50.804 C 212.123 50.639,211.765 50.401,211.765 50.211 C 211.765 49.148,213.280 45.320,214.580 43.103 C 217.135 38.742,222.935 35.003,228.782 33.949 C 230.138 33.704,235.640 34.019,236.975 34.418 M193.430 51.068 C 171.236 52.340,153.134 69.965,149.999 93.354 C 149.381 97.963,149.518 103.818,150.267 104.779 C 150.424 104.980,152.138 105.042,157.556 105.042 C 164.153 105.042,164.665 105.068,164.988 105.426 C 165.426 105.910,165.439 107.006,165.011 107.361 C 164.778 107.555,164.755 107.673,164.928 107.781 C 165.104 107.889,165.107 107.970,164.938 108.074 C 164.811 108.153,164.706 108.117,164.706 107.993 C 164.706 107.836,162.649 107.784,157.931 107.823 L 151.155 107.878 151.205 108.346 C 151.269 108.960,153.349 113.235,153.583 113.235 C 153.682 113.235,155.351 112.615,157.292 111.857 C 166.114 108.410,165.427 108.609,166.253 109.259 C 166.962 109.816,167.040 111.157,166.390 111.612 C 166.162 111.773,163.656 112.834,160.823 113.971 C 157.990 115.108,155.672 116.153,155.672 116.292 C 155.672 116.536,158.590 119.999,159.020 120.264 C 159.217 120.387,161.612 118.366,164.354 115.763 C 166.616 113.616,168.487 113.591,168.487 115.707 C 168.487 116.411,168.573 116.314,164.738 119.946 C 161.497 123.017,161.594 122.796,163.025 123.824 C 165.484 125.591,167.504 126.874,167.668 126.773 C 167.772 126.708,167.857 126.752,167.857 126.869 C 167.857 127.226,169.342 127.838,169.518 127.553 C 169.631 127.370,176.583 127.309,197.521 127.307 C 221.905 127.305,225.406 127.266,225.633 126.993 C 225.775 126.821,225.976 126.681,226.078 126.681 C 226.350 126.681,229.837 124.279,230.797 123.431 L 231.618 122.705 228.276 119.473 C 224.680 115.994,224.453 115.583,225.533 114.503 C 226.456 113.581,227.249 113.996,230.826 117.274 C 233.607 119.822,234.245 120.314,234.498 120.105 C 234.667 119.967,235.492 119.062,236.331 118.095 C 238.141 116.010,238.224 116.197,234.874 114.832 C 233.545 114.290,232.269 113.763,232.038 113.660 C 231.807 113.557,230.634 113.086,229.432 112.615 C 226.563 111.488,225.955 110.581,227.220 109.316 C 227.904 108.632,228.206 108.686,231.933 110.174 C 238.131 112.648,239.732 113.244,239.900 113.140 C 240.219 112.943,242.046 109.014,242.084 108.442 L 242.122 107.878 235.986 107.773 C 229.299 107.659,229.228 107.644,229.208 106.395 C 229.188 105.093,229.457 105.042,236.405 105.039 C 243.587 105.035,243.198 105.122,243.510 103.454 C 244.911 95.950,241.770 82.271,236.782 74.160 C 236.320 73.409,235.784 72.514,235.590 72.172 C 234.509 70.263,230.990 66.001,228.588 63.692 C 221.064 56.456,210.543 51.685,200.945 51.155 C 199.790 51.091,198.277 51.008,197.584 50.971 C 196.891 50.933,195.021 50.977,193.430 51.068 M201.366 51.476 C 218.490 53.068,233.508 64.687,239.916 81.303 C 240.295 82.285,240.682 83.277,240.777 83.508 C 241.407 85.050,242.225 88.365,242.981 92.437 C 243.470 95.073,243.527 102.130,243.070 103.624 L 242.765 104.622 237.297 104.641 C 234.289 104.652,231.450 104.646,230.987 104.629 C 229.825 104.584,228.617 105.732,228.749 106.754 C 228.759 106.828,228.581 106.841,228.354 106.782 C 227.874 106.656,227.785 107.064,228.260 107.211 C 228.480 107.279,228.464 107.298,228.208 107.272 C 227.927 107.242,227.853 107.081,227.904 106.610 L 227.972 105.987 227.349 106.582 C 226.957 106.957,226.675 107.093,226.586 106.950 C 226.490 106.795,224.394 106.723,219.991 106.723 L 213.536 106.723 213.163 106.091 C 212.236 104.522,210.622 104.621,209.836 106.296 C 209.568 106.868,209.228 107.340,209.081 107.344 C 208.877 107.351,208.891 107.202,209.139 106.723 C 209.324 106.364,209.372 106.092,209.249 106.092 C 209.131 106.092,209.034 106.234,209.034 106.408 C 209.034 106.789,208.690 106.826,208.542 106.460 C 208.484 106.316,208.429 106.410,208.420 106.670 C 208.399 107.267,208.071 107.279,207.758 106.694 C 207.619 106.434,207.461 106.337,207.383 106.463 C 206.995 107.089,205.562 106.790,205.251 106.018 L 205.069 105.567 205.055 106.026 C 205.038 106.610,204.222 106.918,203.955 106.440 C 203.850 106.252,203.629 106.164,203.443 106.235 C 203.177 106.338,203.168 106.398,203.396 106.562 C 203.610 106.715,203.594 106.736,203.329 106.652 C 203.137 106.591,202.301 106.771,201.470 107.052 C 200.639 107.333,199.785 107.563,199.572 107.563 C 199.359 107.563,199.132 107.649,199.067 107.753 C 199.002 107.858,198.749 107.892,198.505 107.828 C 197.964 107.686,198.063 108.152,198.910 109.732 C 201.736 115.003,210.084 112.709,210.084 106.662 C 210.084 105.467,211.880 104.936,212.663 105.900 C 213.695 107.171,212.213 111.620,210.154 113.433 C 208.007 115.322,203.505 116.415,201.677 115.490 C 201.421 115.361,201.364 115.465,201.388 116.015 C 201.480 118.064,200.624 121.115,199.625 122.302 C 197.218 125.162,192.154 123.413,190.094 119.010 C 189.007 116.686,189.129 116.053,190.756 115.576 L 191.492 115.360 190.651 115.506 C 185.550 116.390,181.457 114.053,180.020 109.435 C 179.423 107.515,179.481 106.234,180.190 105.676 C 181.168 104.907,182.563 105.638,182.563 106.918 C 182.563 113.406,192.099 114.844,194.225 108.676 C 194.557 107.713,194.668 107.829,193.043 107.428 C 186.107 105.714,183.988 99.776,189.219 96.710 C 189.728 96.412,190.098 96.121,190.042 96.064 C 189.685 95.707,187.126 98.062,186.451 99.368 C 185.595 101.023,186.244 103.606,187.896 105.115 C 188.321 105.504,188.458 105.749,188.288 105.816 C 188.143 105.872,188.025 106.069,188.025 106.255 C 188.025 106.537,188.073 106.528,188.315 106.197 C 188.587 105.825,188.626 105.823,188.960 106.157 C 189.156 106.353,189.492 106.513,189.708 106.513 C 190.220 106.513,190.472 106.929,190.100 107.161 C 189.911 107.279,189.789 107.243,189.748 107.056 C 189.669 106.701,188.868 106.544,187.500 106.615 C 186.922 106.645,185.906 106.682,185.242 106.696 C 184.143 106.720,184.032 106.766,184.013 107.195 C 183.993 107.643,183.984 107.641,183.848 107.143 C 183.769 106.854,183.500 106.527,183.250 106.415 C 183.001 106.304,182.685 106.005,182.548 105.750 C 181.856 104.457,179.202 105.236,179.202 106.732 C 179.202 107.111,179.147 107.149,178.899 106.943 C 178.676 106.758,177.102 106.710,172.922 106.760 C 167.398 106.826,167.245 106.817,167.129 106.408 C 167.017 106.012,166.993 106.009,166.728 106.355 C 166.344 106.854,166.277 106.830,165.770 106.009 C 164.878 104.566,165.012 104.588,157.381 104.613 L 150.508 104.636 150.254 103.154 C 147.546 87.363,158.548 65.738,173.529 57.408 C 179.053 54.336,183.722 52.679,189.286 51.815 C 192.901 51.253,197.565 51.122,201.366 51.476 M167.227 77.104 C 167.005 77.249,167.130 77.270,167.647 77.175 C 168.553 77.009,168.724 76.890,168.050 76.894 C 167.770 76.896,167.400 76.990,167.227 77.104 M170.186 76.966 C 170.418 77.165,171.648 77.285,171.532 77.098 C 171.461 76.984,171.110 76.891,170.751 76.891 C 170.392 76.891,170.137 76.924,170.186 76.966 M221.849 77.104 C 221.627 77.249,221.752 77.270,222.269 77.175 C 223.175 77.009,223.346 76.890,222.672 76.894 C 222.392 76.896,222.022 76.990,221.849 77.104 M224.807 76.966 C 224.856 77.007,225.226 77.101,225.630 77.175 C 226.148 77.270,226.272 77.249,226.050 77.104 C 225.766 76.917,224.599 76.787,224.807 76.966 M165.825 77.649 C 164.947 78.082,163.577 79.266,162.983 80.105 C 162.721 80.475,163.072 80.205,163.764 79.506 C 164.455 78.807,165.446 78.032,165.966 77.783 C 166.486 77.535,166.817 77.329,166.702 77.326 C 166.586 77.323,166.192 77.468,165.825 77.649 M220.483 77.639 C 220.137 77.818,219.711 78.120,219.538 78.309 C 219.254 78.619,219.257 78.627,219.569 78.395 C 219.759 78.252,220.279 77.954,220.724 77.732 C 221.169 77.510,221.439 77.324,221.324 77.321 C 221.208 77.317,220.830 77.460,220.483 77.639 M229.090 79.022 C 229.741 79.617,230.417 80.382,230.593 80.722 C 230.769 81.063,230.965 81.290,231.028 81.227 C 231.287 80.968,228.549 77.941,228.056 77.941 C 227.974 77.941,228.440 78.428,229.090 79.022 M174.756 79.245 C 175.258 79.771,175.903 80.568,176.191 81.015 C 176.478 81.462,176.653 81.641,176.580 81.413 C 176.391 80.821,175.253 79.394,174.493 78.797 C 174.042 78.444,174.123 78.580,174.756 79.245 M218.266 79.359 L 217.542 80.147 218.330 79.423 C 218.763 79.025,219.118 78.670,219.118 78.635 C 219.118 78.475,218.940 78.626,218.266 79.359 M217.015 80.935 C 216.786 81.310,216.598 81.704,216.597 81.810 C 216.596 82.050,216.626 82.010,217.182 81.040 C 217.734 80.075,217.593 79.986,217.015 80.935 M161.967 81.738 C 161.727 82.209,161.559 82.672,161.595 82.767 C 161.631 82.862,161.866 82.477,162.119 81.911 C 162.675 80.665,162.573 80.549,161.967 81.738 M216.164 82.700 C 216.048 83.006,215.983 83.349,216.021 83.462 C 216.059 83.575,216.195 83.324,216.323 82.905 C 216.594 82.024,216.478 81.875,216.164 82.700 M177.228 83.403 C 177.309 83.692,177.450 84.449,177.542 85.084 L 177.710 86.239 177.637 84.947 C 177.597 84.236,177.456 83.479,177.323 83.266 C 177.113 82.929,177.100 82.947,177.228 83.403 M231.851 83.508 C 232.024 84.281,232.144 84.449,232.140 83.911 C 232.138 83.690,232.040 83.367,231.923 83.193 C 231.767 82.963,231.748 83.048,231.851 83.508 M161.059 84.611 C 160.902 85.563,160.925 87.272,161.107 88.118 C 161.180 88.458,161.239 87.631,161.239 86.280 C 161.239 83.524,161.239 83.522,161.059 84.611 M215.678 84.480 C 215.514 85.299,215.542 87.547,215.725 88.195 C 215.800 88.462,215.861 87.587,215.861 86.252 C 215.861 83.554,215.862 83.559,215.678 84.480 M232.217 86.239 C 232.217 87.279,232.252 87.731,232.296 87.244 C 232.340 86.756,232.341 85.905,232.298 85.353 C 232.254 84.801,232.218 85.200,232.217 86.239 M177.555 87.186 C 177.536 87.591,177.428 88.247,177.315 88.643 C 177.201 89.039,177.147 89.402,177.196 89.451 C 177.373 89.628,177.753 87.764,177.672 87.117 L 177.588 86.450 177.555 87.186 M231.957 88.481 C 231.944 88.673,231.878 89.004,231.812 89.216 C 231.697 89.581,231.703 89.581,231.931 89.227 C 232.063 89.021,232.128 88.690,232.076 88.491 C 231.991 88.166,231.979 88.165,231.957 88.481 M161.361 89.076 C 161.347 89.440,162.317 91.597,162.496 91.597 C 162.562 91.597,162.462 91.298,162.273 90.934 C 162.084 90.569,161.805 89.931,161.652 89.516 C 161.499 89.100,161.368 88.902,161.361 89.076 M216.057 89.391 C 216.139 89.737,216.297 90.113,216.407 90.226 C 216.518 90.339,216.497 90.103,216.361 89.701 C 216.043 88.760,215.864 88.578,216.057 89.391 M231.019 90.986 C 230.690 91.641,229.981 92.628,229.444 93.179 C 228.794 93.846,228.660 94.057,229.044 93.810 C 229.927 93.243,231.875 90.391,231.683 89.946 C 231.647 89.863,231.348 90.331,231.019 90.986 M176.409 91.042 C 174.942 93.844,172.293 95.483,169.232 95.483 C 167.548 95.483,167.442 95.505,168.263 95.678 C 170.360 96.120,173.032 95.185,174.864 93.368 C 175.832 92.407,177.268 90.223,177.064 90.019 C 177.021 89.976,176.726 90.436,176.409 91.042 M162.770 92.122 C 162.892 92.353,163.398 92.920,163.894 93.382 C 164.786 94.212,164.501 93.853,162.643 91.807 C 162.591 91.749,162.648 91.891,162.770 92.122 M217.227 91.937 C 217.227 92.047,217.720 92.607,218.322 93.180 L 219.416 94.223 218.389 93.067 C 217.823 92.432,217.331 91.872,217.294 91.824 C 217.257 91.776,217.227 91.827,217.227 91.937 M165.032 94.345 C 165.176 94.578,166.395 95.230,166.497 95.128 C 166.536 95.089,166.195 94.853,165.739 94.604 C 165.284 94.354,164.965 94.238,165.032 94.345 M227.031 94.814 C 225.741 95.481,223.763 95.686,222.059 95.329 C 221.423 95.196,221.380 95.210,221.744 95.434 C 222.938 96.171,228.361 95.240,228.361 94.299 C 228.361 94.199,228.338 94.132,228.309 94.149 C 228.280 94.166,227.705 94.465,227.031 94.814 M194.023 94.720 C 193.682 94.793,194.845 94.853,196.607 94.853 C 198.369 94.853,199.594 94.791,199.328 94.716 C 198.712 94.542,194.841 94.545,194.023 94.720 M192.122 95.168 C 191.587 95.398,192.139 95.398,192.857 95.168 C 193.279 95.033,193.300 94.999,192.962 94.994 C 192.731 94.990,192.353 95.069,192.122 95.168 M200.525 95.150 C 200.756 95.241,201.229 95.373,201.576 95.443 L 202.206 95.571 201.576 95.274 C 201.229 95.111,200.756 94.979,200.525 94.981 L 200.105 94.985 200.525 95.150 M190.778 95.606 C 190.502 95.717,190.328 95.860,190.392 95.924 C 190.456 95.989,190.777 95.896,191.105 95.718 C 191.765 95.361,191.564 95.292,190.778 95.606 M203.419 96.274 C 206.345 97.914,207.664 100.392,206.857 102.731 C 206.705 103.171,206.722 103.212,206.962 102.983 C 207.381 102.583,207.327 100.069,206.882 99.239 C 206.157 97.890,203.364 95.582,202.465 95.591 C 202.323 95.592,202.752 95.899,203.419 96.274 M205.329 104.746 C 204.204 105.911,204.081 106.115,204.365 106.349 C 204.632 106.570,204.673 106.566,204.594 106.326 C 204.541 106.165,204.998 105.534,205.610 104.922 C 206.222 104.310,206.723 103.708,206.723 103.585 C 206.723 103.288,206.795 103.228,205.329 104.746 M187.115 105.812 C 186.914 106.013,186.942 106.303,187.162 106.303 C 187.266 106.303,187.404 106.161,187.471 105.987 C 187.594 105.667,187.370 105.557,187.115 105.812 M206.323 106.080 C 206.114 106.209,206.108 106.287,206.298 106.405 C 206.436 106.490,206.644 106.465,206.759 106.350 C 207.033 106.076,206.681 105.859,206.323 106.080 M146.603 107.964 L 148.142 108.088 149.034 110.294 C 149.524 111.507,150.126 112.888,150.371 113.362 C 150.707 114.010,150.758 114.284,150.577 114.465 C 150.396 114.646,150.400 114.706,150.595 114.706 C 151.141 114.706,151.040 114.078,150.221 112.375 C 149.753 111.404,149.154 109.995,148.888 109.244 L 148.405 107.878 146.734 107.859 L 145.063 107.839 146.603 107.964 M245.023 108.036 C 244.915 108.180,244.558 109.007,244.230 109.874 C 243.902 110.741,243.318 112.085,242.931 112.861 C 242.235 114.259,242.233 114.274,242.666 114.506 C 242.906 114.635,243.150 114.694,243.206 114.637 C 243.263 114.580,243.119 114.474,242.886 114.400 C 242.480 114.271,242.492 114.211,243.183 112.885 C 243.579 112.125,244.202 110.716,244.568 109.754 L 245.232 108.004 246.093 107.925 L 246.954 107.847 246.087 107.810 C 245.597 107.789,245.134 107.887,245.023 108.036 M194.858 113.020 C 194.291 113.595,193.332 114.326,192.725 114.643 C 192.118 114.961,191.654 115.253,191.694 115.293 C 191.991 115.590,194.894 113.581,195.599 112.591 C 196.221 111.716,196.037 111.823,194.858 113.020 M197.023 112.538 C 197.749 113.584,200.244 115.359,200.942 115.326 C 201.060 115.320,200.619 115.039,199.964 114.701 C 199.309 114.362,198.275 113.587,197.666 112.978 C 196.934 112.245,196.716 112.096,197.023 112.538 M148.712 115.233 C 148.408 115.398,148.100 115.702,148.029 115.908 C 147.912 116.241,147.926 116.246,148.161 115.947 C 148.306 115.763,148.708 115.460,149.055 115.273 C 149.401 115.086,149.590 114.933,149.475 114.933 C 149.359 114.933,149.016 115.068,148.712 115.233 M245.483 116.807 C 245.483 117.247,245.554 117.563,245.641 117.510 C 245.727 117.456,245.798 117.140,245.798 116.807 C 245.798 116.474,245.727 116.157,245.641 116.104 C 245.554 116.050,245.483 116.367,245.483 116.807 M240.441 117.178 C 240.326 117.262,239.858 117.805,239.402 118.382 C 238.946 118.960,238.021 120.063,237.348 120.833 L 236.123 122.233 236.602 122.734 C 236.865 123.009,236.962 123.081,236.817 122.893 C 236.410 122.362,236.483 122.172,237.563 120.973 C 238.118 120.357,239.031 119.261,239.593 118.536 C 240.414 117.478,240.700 117.244,241.053 117.342 C 241.404 117.440,241.428 117.420,241.176 117.244 C 240.802 116.982,240.718 116.974,240.441 117.178 M152.443 117.372 C 152.798 117.441,155.763 120.710,156.828 122.205 C 156.986 122.427,156.820 122.704,156.153 123.330 C 155.666 123.786,155.340 124.160,155.428 124.160 C 155.693 124.160,157.143 122.586,157.143 122.297 C 157.143 122.150,156.730 121.586,156.225 121.046 C 155.029 119.765,154.183 118.755,153.596 117.910 C 153.246 117.405,152.975 117.234,152.559 117.256 C 152.102 117.279,152.080 117.301,152.443 117.372 M148.303 117.910 C 148.828 118.504,149.618 118.658,150.210 118.280 C 150.426 118.142,150.274 118.119,149.729 118.207 C 149.078 118.312,148.829 118.243,148.364 117.833 L 147.794 117.332 148.303 117.910 M244.328 118.185 C 243.860 118.363,243.745 118.465,244.013 118.468 C 244.244 118.471,244.669 118.337,244.958 118.172 C 245.600 117.805,245.317 117.811,244.328 118.185 M238.709 124.759 C 239.427 125.453,240.045 125.991,240.082 125.954 C 240.163 125.873,237.858 123.664,237.590 123.566 C 237.487 123.528,237.991 124.065,238.709 124.759 M153.682 125.625 C 152.999 126.315,152.482 126.909,152.533 126.944 C 152.584 126.980,153.185 126.415,153.869 125.689 C 155.447 124.013,155.320 123.970,153.682 125.625 M158.120 125.876 L 156.828 127.172 158.125 125.981 C 159.691 124.544,159.429 124.549,160.997 125.918 C 163.566 128.161,168.359 131.243,172.511 133.322 C 173.981 134.058,175.235 134.744,175.298 134.846 C 175.406 135.021,174.509 137.469,174.171 137.920 C 173.407 138.942,170.589 146.833,170.158 149.160 C 170.019 149.911,169.878 150.629,169.845 150.756 C 169.812 150.883,169.117 151.042,168.300 151.111 C 167.483 151.179,166.647 151.343,166.443 151.474 C 166.106 151.690,166.111 151.699,166.492 151.574 C 166.723 151.499,167.599 151.383,168.439 151.318 C 169.872 151.207,169.973 151.166,170.085 150.652 C 171.053 146.206,172.301 142.645,174.730 137.395 C 176.003 134.645,176.035 134.739,173.386 133.471 C 169.453 131.589,164.189 128.236,160.926 125.535 C 159.493 124.349,159.663 124.328,158.120 125.876 M232.038 125.853 C 229.373 128.129,223.992 131.542,220.111 133.419 C 217.776 134.548,217.828 134.481,218.299 135.721 C 218.517 136.295,218.792 137.193,218.909 137.718 C 219.027 138.242,219.301 139.070,219.519 139.556 C 220.914 142.678,222.285 146.721,222.882 149.475 L 223.246 151.155 224.721 151.289 C 225.533 151.362,226.424 151.485,226.701 151.561 C 227.130 151.680,227.150 151.666,226.834 151.468 C 226.630 151.340,225.795 151.179,224.977 151.111 C 224.160 151.042,223.464 150.883,223.431 150.756 C 223.397 150.629,223.204 149.769,223.001 148.845 C 222.563 146.852,221.682 144.185,220.226 140.441 C 218.697 136.512,218.148 134.601,218.514 134.485 C 219.187 134.272,224.001 131.697,225.840 130.565 C 228.920 128.670,234.368 124.569,233.779 124.589 C 233.630 124.594,232.847 125.163,232.038 125.853 M234.664 125.294 C 235.285 125.991,238.445 128.867,238.445 128.735 C 238.445 128.685,237.476 127.758,236.292 126.675 C 235.108 125.592,234.375 124.970,234.664 125.294 M240.966 127.535 C 240.966 127.774,240.867 128.175,240.745 128.428 C 240.531 128.871,240.534 128.873,240.850 128.479 C 241.151 128.102,241.313 127.101,241.071 127.101 C 241.014 127.101,240.966 127.296,240.966 127.535 M155.166 128.492 C 154.710 128.893,154.379 129.009,153.867 128.949 C 153.490 128.905,153.227 128.944,153.283 129.036 C 153.516 129.412,154.606 129.168,155.357 128.571 C 155.793 128.225,156.066 127.944,155.964 127.948 C 155.861 127.951,155.502 128.196,155.166 128.492 M238.793 129.044 C 238.847 129.131,239.163 129.202,239.496 129.202 C 239.829 129.202,240.145 129.131,240.199 129.044 C 240.252 128.957,239.936 128.887,239.496 128.887 C 239.056 128.887,238.739 128.957,238.793 129.044 M205.357 138.695 C 200.029 139.807,195.522 139.991,191.282 139.270 C 189.895 139.034,188.357 138.787,187.863 138.721 L 186.965 138.600 187.091 141.306 C 187.385 147.671,188.423 149.663,191.832 150.408 C 198.016 151.759,195.282 156.251,188.340 156.144 C 183.325 156.066,178.862 153.131,176.366 148.269 C 175.108 145.820,175.172 145.840,174.616 147.742 C 172.092 156.381,173.778 166.394,178.571 171.238 C 179.682 172.361,179.931 172.493,179.727 171.849 C 179.563 171.331,179.943 171.291,180.230 171.796 C 180.401 172.098,180.511 172.120,180.844 171.916 C 181.097 171.761,181.323 171.743,181.446 171.867 C 181.696 172.116,209.995 171.977,212.132 171.716 C 212.970 171.613,213.655 171.601,213.655 171.689 C 213.655 172.076,214.240 171.788,214.888 171.081 C 219.402 166.163,221.055 156.056,218.691 147.834 C 218.402 146.829,218.140 146.913,217.455 148.229 C 213.948 154.961,206.067 158.030,199.924 155.056 C 197.383 153.826,197.685 151.352,200.463 150.628 C 203.220 149.910,203.702 149.709,204.431 148.975 C 205.645 147.755,206.079 146.254,206.305 142.501 C 206.412 140.722,206.549 139.187,206.609 139.090 C 206.833 138.727,206.185 138.522,205.357 138.695 M188.761 139.162 C 193.759 140.312,199.168 140.307,204.581 139.147 C 206.456 138.745,206.369 138.652,206.102 140.778 C 205.981 141.742,205.882 143.114,205.882 143.827 C 205.882 145.469,205.236 147.575,204.436 148.542 C 203.825 149.280,203.181 149.564,200.630 150.218 C 198.582 150.743,197.524 151.955,197.805 153.453 C 198.016 154.578,197.467 155.042,195.925 155.042 L 194.675 155.042 195.128 154.559 C 195.661 153.992,195.947 152.848,195.609 152.639 C 195.482 152.561,195.378 152.330,195.378 152.128 C 195.378 151.224,193.927 150.460,191.164 149.909 C 188.881 149.454,187.742 147.098,187.498 142.332 C 187.427 140.945,187.326 139.598,187.273 139.338 C 187.160 138.785,187.134 138.788,188.761 139.162 M175.827 148.024 C 176.529 149.610,178.032 151.705,179.429 153.046 C 180.385 153.964,180.647 154.325,180.392 154.375 C 180.200 154.412,180.042 154.530,180.042 154.637 C 180.042 154.914,180.542 154.878,180.840 154.580 C 181.032 154.388,181.151 154.386,181.338 154.573 C 181.725 154.961,181.285 155.022,177.667 155.087 C 174.593 155.143,174.355 155.120,174.444 154.779 C 174.616 154.124,174.228 154.391,173.985 155.095 C 173.433 156.693,174.107 150.711,174.725 148.529 C 175.237 146.719,175.248 146.714,175.827 148.024 M219.023 150.945 C 219.331 152.645,219.417 154.354,219.221 154.867 C 219.041 155.337,213.368 155.059,212.874 154.556 C 212.514 154.188,212.523 154.179,213.130 154.320 C 213.639 154.438,213.712 154.414,213.506 154.195 C 213.304 153.980,213.448 153.753,214.209 153.083 C 215.392 152.041,216.950 149.996,217.647 148.570 L 218.172 147.496 218.446 148.380 C 218.596 148.867,218.856 150.021,219.023 150.945 M165.009 151.993 C 164.636 152.279,164.659 152.286,165.284 152.077 C 165.997 151.840,166.160 151.681,165.691 151.681 C 165.540 151.681,165.233 151.821,165.009 151.993 M228.353 152.266 C 228.984 152.580,230.024 153.353,230.664 153.985 C 231.784 155.091,231.794 154.945,230.683 153.713 C 230.074 153.040,227.928 151.677,227.494 151.688 C 227.335 151.693,227.722 151.953,228.353 152.266 M163.057 153.288 C 161.997 154.215,160.785 155.813,160.989 156.017 C 161.041 156.069,161.332 155.688,161.635 155.170 C 161.939 154.652,162.636 153.872,163.184 153.437 C 164.611 152.306,164.606 152.311,164.377 152.311 C 164.265 152.311,163.671 152.750,163.057 153.288 M198.702 154.937 C 198.929 155.226,199.338 155.473,199.610 155.487 C 200.006 155.506,200.026 155.531,199.712 155.612 C 199.140 155.759,197.695 155.060,197.833 154.702 C 197.995 154.279,198.235 154.344,198.702 154.937 M212.997 154.912 C 213.437 155.157,213.453 155.204,213.128 155.329 C 212.927 155.406,212.630 155.360,212.469 155.227 C 212.244 155.040,212.090 155.063,211.797 155.328 C 211.366 155.718,211.134 155.767,211.134 155.469 C 211.134 154.920,212.354 154.556,212.997 154.912 M232.311 156.502 C 232.615 157.190,232.900 157.716,232.945 157.671 C 233.043 157.574,231.999 155.252,231.857 155.252 C 231.803 155.252,232.007 155.815,232.311 156.502 M160.291 157.491 C 159.942 158.647,159.795 161.322,160.033 162.185 C 160.190 162.754,160.213 162.517,160.136 161.134 C 160.068 159.899,160.139 158.963,160.367 158.097 C 160.734 156.705,160.674 156.223,160.291 157.491 M233.008 158.233 C 232.965 158.853,233.420 158.917,237.395 158.856 C 241.232 158.797,248.371 159.259,249.678 159.650 C 250.028 159.755,250.882 159.995,251.576 160.184 C 255.008 161.117,259.135 163.719,259.898 165.430 C 260.004 165.667,260.264 166.145,260.477 166.492 C 260.734 166.912,260.837 167.402,260.785 167.962 C 260.737 168.490,260.769 168.664,260.873 168.429 C 261.004 168.135,261.100 168.262,261.324 169.020 C 261.655 170.140,261.499 172.107,261.022 172.835 C 260.853 173.093,260.714 173.417,260.714 173.555 C 260.714 174.506,258.031 176.570,256.479 176.812 C 255.977 176.890,255.520 177.018,255.462 177.097 C 255.368 177.224,252.996 177.621,249.160 178.151 C 248.409 178.255,246.801 178.401,245.588 178.475 C 244.375 178.550,243.288 178.683,243.172 178.772 C 243.057 178.861,242.352 178.995,241.606 179.069 C 240.860 179.143,240.156 179.298,240.041 179.413 C 239.926 179.528,239.620 179.622,239.361 179.622 C 239.102 179.622,238.832 179.716,238.761 179.832 C 238.689 179.947,238.481 180.042,238.298 180.042 C 237.991 180.042,236.163 180.852,235.924 181.093 C 235.867 181.152,235.469 181.461,235.042 181.779 C 234.614 182.098,234.101 182.634,233.902 182.971 C 233.500 183.653,232.834 183.925,232.416 183.579 C 232.042 183.268,232.073 182.927,232.521 182.445 C 232.729 182.221,232.960 181.879,233.034 181.685 C 233.291 181.011,237.395 178.177,237.395 178.673 C 237.395 178.733,237.748 178.593,238.180 178.362 C 238.611 178.130,239.160 177.941,239.398 177.941 C 239.637 177.941,239.922 177.864,240.032 177.769 C 240.318 177.523,242.108 177.134,243.697 176.974 C 244.449 176.898,245.158 176.767,245.273 176.682 C 245.389 176.597,246.287 176.466,247.269 176.391 C 248.251 176.316,249.527 176.167,250.105 176.060 C 250.683 175.953,251.807 175.760,252.604 175.632 C 254.195 175.376,256.577 174.621,256.688 174.339 C 256.726 174.240,256.915 174.160,257.108 174.160 C 257.602 174.160,258.678 172.752,258.934 171.769 C 259.161 170.896,258.897 168.487,258.573 168.487 C 258.480 168.487,258.403 168.319,258.403 168.114 C 258.403 167.909,258.255 167.529,258.075 167.271 C 257.872 166.982,257.801 166.629,257.890 166.349 L 258.034 165.896 258.424 166.404 C 258.639 166.683,258.816 167.030,258.819 167.174 C 258.821 167.319,258.904 167.437,259.003 167.437 C 259.102 167.437,259.346 168.193,259.546 169.118 C 259.911 170.806,260.326 171.293,260.578 170.329 C 261.137 168.191,258.355 164.055,255.318 162.508 C 254.646 162.166,254.049 161.832,253.992 161.767 C 253.845 161.601,251.857 161.028,250.105 160.645 C 246.194 159.792,245.918 159.769,239.706 159.769 L 233.508 159.769 233.445 160.424 C 233.366 161.235,233.728 161.366,235.319 161.104 C 238.739 160.541,247.018 161.013,250.735 161.983 C 253.580 162.725,254.382 163.037,255.704 163.917 C 257.615 165.190,257.951 165.517,257.830 165.983 C 257.687 166.528,257.668 166.520,256.477 165.449 C 255.903 164.933,255.038 164.327,254.555 164.102 C 252.803 163.288,252.136 163.025,251.819 163.025 C 251.641 163.025,251.443 162.941,251.379 162.837 C 251.315 162.734,250.908 162.604,250.474 162.548 C 250.040 162.492,249.070 162.338,248.319 162.207 C 247.568 162.075,246.339 161.865,245.588 161.741 C 242.310 161.199,233.145 161.753,233.027 162.500 C 232.978 162.810,233.011 162.846,233.154 162.638 C 233.491 162.147,240.622 161.848,244.529 162.163 C 253.667 162.898,258.345 165.670,258.567 170.483 C 258.713 173.639,256.720 174.791,249.475 175.738 C 241.386 176.796,238.985 177.342,236.239 178.748 C 233.121 180.345,230.866 183.441,232.405 184.013 C 233.073 184.261,233.317 184.122,234.755 182.679 C 237.203 180.219,239.799 179.443,248.486 178.572 C 258.763 177.542,261.765 175.719,261.765 170.508 C 261.765 162.520,254.046 158.487,238.821 158.521 C 233.910 158.531,233.198 158.492,233.120 158.206 C 233.047 157.933,233.028 157.937,233.008 158.233 M160.324 163.235 C 160.324 163.409,160.405 163.739,160.504 163.971 C 160.618 164.235,160.685 164.274,160.685 164.076 C 160.685 163.902,160.604 163.571,160.504 163.340 C 160.390 163.075,160.324 163.037,160.324 163.235 M160.815 164.916 C 160.989 165.512,162.365 168.067,162.512 168.067 C 162.606 168.067,160.957 164.703,160.761 164.496 C 160.707 164.438,160.731 164.627,160.815 164.916 M231.335 166.709 C 230.838 167.681,229.827 169.285,229.090 170.274 C 228.353 171.263,227.848 172.011,227.969 171.937 C 228.739 171.461,232.605 165.308,232.315 165.018 C 232.274 164.977,231.833 165.738,231.335 166.709 M162.733 168.487 C 163.332 169.769,166.684 173.834,169.421 176.598 C 170.005 177.187,170.663 177.873,170.883 178.121 L 171.284 178.571 169.367 178.435 C 166.279 178.216,164.665 179.183,164.734 181.210 L 164.762 182.038 164.900 181.047 C 165.178 179.061,166.393 178.439,169.572 178.658 C 170.709 178.737,171.639 178.739,171.639 178.664 C 171.639 178.589,170.313 177.154,168.693 175.476 C 166.165 172.858,164.836 171.285,162.963 168.694 C 162.755 168.407,162.652 168.314,162.733 168.487 M224.632 175.407 C 222.986 177.128,221.639 178.596,221.639 178.668 C 221.639 178.741,222.574 178.736,223.717 178.658 C 225.109 178.562,226.026 178.595,226.496 178.759 C 227.064 178.957,227.145 178.952,226.927 178.735 C 226.739 178.549,225.952 178.469,224.358 178.475 C 223.093 178.479,222.059 178.449,222.059 178.409 C 222.059 178.368,223.040 177.324,224.239 176.089 C 226.368 173.897,227.849 172.264,227.700 172.273 C 227.659 172.276,226.279 173.686,224.632 175.407 M259.552 172.785 C 259.106 173.824,256.956 175.555,256.385 175.336 C 256.212 175.269,256.126 175.304,256.193 175.412 C 256.260 175.521,255.934 175.724,255.468 175.863 C 254.726 176.086,254.302 176.471,254.799 176.471 C 256.592 176.471,260.087 173.881,259.819 172.751 C 259.735 172.401,259.716 172.404,259.552 172.785 M227.741 179.567 C 228.008 179.941,228.275 180.198,228.335 180.138 C 228.395 180.078,228.177 179.772,227.850 179.458 L 227.256 178.887 227.741 179.567 M182.466 181.007 C 182.387 181.537,182.369 182.019,182.426 182.076 C 182.484 182.134,182.595 181.760,182.672 181.245 L 182.812 180.309 184.211 180.897 C 191.846 184.104,203.282 183.939,209.874 180.527 C 210.365 180.272,210.408 180.292,210.532 180.831 C 210.662 181.397,210.665 181.395,210.689 180.725 C 210.720 179.888,210.850 179.883,208.537 180.808 C 201.220 183.735,192.047 183.731,184.713 180.797 C 183.675 180.382,182.778 180.042,182.718 180.042 C 182.659 180.042,182.546 180.476,182.466 181.007 M228.410 181.092 C 228.410 181.497,228.453 181.662,228.506 181.460 C 228.559 181.258,228.559 180.927,228.506 180.725 C 228.453 180.523,228.410 180.688,228.410 181.092 M210.729 181.677 C 210.658 182.967,213.506 185.724,214.196 185.034 C 214.247 184.983,213.931 184.834,213.493 184.703 C 212.507 184.408,211.454 183.348,211.050 182.244 C 210.882 181.784,210.737 181.529,210.729 181.677 M164.922 182.300 C 164.901 183.178,167.524 185.095,168.697 185.058 C 169.085 185.046,169.015 184.993,168.428 184.855 C 166.992 184.516,165.824 183.660,165.161 182.458 C 165.033 182.227,164.926 182.156,164.922 182.300 M228.151 182.346 C 228.151 183.136,226.193 184.574,224.721 184.865 C 223.982 185.011,223.943 185.041,224.475 185.056 C 225.416 185.084,226.687 184.419,227.574 183.436 C 228.280 182.652,228.549 182.143,228.256 182.143 C 228.199 182.143,228.151 182.234,228.151 182.346 M182.055 182.720 C 181.842 183.389,180.698 184.408,179.768 184.757 C 179.159 184.984,179.082 185.049,179.517 184.964 C 180.736 184.727,182.749 182.889,182.291 182.431 C 182.231 182.371,182.124 182.501,182.055 182.720 M173.731 185.320 C 175.518 185.418,177.409 185.424,177.933 185.332 C 178.562 185.223,177.454 185.162,174.685 185.153 L 170.483 185.141 173.731 185.320 M215.278 185.323 C 215.767 185.410,217.610 185.404,219.375 185.311 L 222.584 185.142 218.487 185.154 C 215.978 185.161,214.735 185.226,215.278 185.323 " stroke="none" fill="#c8c8c8" fill-rule="evenodd"></path></g></svg>