<?xml version="1.0" encoding="utf-8"?>
<!DOCTYPE svg PUBLIC "-//W3C//DTD SVG 1.0//EN" "http://www.w3.org/TR/2001/REC-SVG-20010904/DTD/svg10.dtd">
<svg version="1.0" xmlns="http://www.w3.org/2000/svg" width="500px" height="500px" viewBox="0 0 500 500" preserveAspectRatio="xMidYMid meet">
 <g fill="#01c44c" fill-rule="evenodd">
  <path d="M227.2 435.5 C190.5 430 159.1 416.6 132.5 394.9 C122.1 386.5 105.4 368.7 97.7 357.9 C89 345.8 77.3 322.6 72.7 308.3 C60.1 269.6 60.2 228.9 73 190.5 C94.7 125.5 150.2 77.6 218 65.5 C230.8 63.2 257.8 62.4 271 63.9 C300 67.2 327.9 77.1 351.6 92.5 L359.7 97.7 359.2 107.2 C358.7 115.8 358.9 117.2 361.2 122.2 C364.6 129.6 370 135.3 376.8 138.7 C381.7 141.1 383.5 141.4 390.5 141.3 C394.9 141.2 399.3 141 400.4 140.8 C404.8 140 420.5 168.7 427.8 190.5 C444.1 239.6 440 290.5 415.9 336.9 C407.8 352.5 398.6 365.2 385.5 378.8 C368.7 396.1 354.5 406.7 333.2 417.4 C301.8 433.2 259.8 440.3 227.2 435.5 M185.1 376.6 C180.9 374.5 179 371.2 179 365.9 C179 360.1 181.6 356.4 187 354.8 C191.3 353.5 195.5 354.7 198.4 357.8 C199.8 359.4 199.4 360 193.9 365.5 C190.6 368.7 188 371.7 188 372.2 C188 373.7 191.7 372.9 194.2 371 C196.6 369.1 196.8 369.1 198.3 370.8 C199.8 372.5 199.8 372.7 198.2 374.2 C196.2 376 191.7 378 189.5 378 C188.6 378 186.7 377.3 185.1 376.6 M183 365.9 C183 363.3 187.3 359 189.9 359 C192.9 359 192.5 360.1 188 364.2 C183.3 368.5 183 368.7 183 365.9 M201 371.7 C201.1 363.3 202.7 359 206.8 356.2 C211.2 353.3 214.7 353.3 219 356.2 C223.7 359.4 224.9 362.3 224.9 370.7 C224.9 377.8 224.9 378 222.5 378 C220 378 220 377.8 220 370.6 C220 364.3 219.6 363 217.6 361.1 C214.6 358.3 211.4 358.4 208.4 361.4 C206.3 363.5 206 364.8 206 370.9 C206 377.8 205.9 378 203.5 378 C201 378 201 377.7 201 371.7 M233.2 376.6 C228.3 374.2 226.5 371.2 226.5 365.9 C226.5 361.9 227 360.5 229.4 358 C234.1 353.1 239.9 352.8 245.4 357.1 C247.9 359.1 248 359.3 246.4 361 C244.7 362.8 244.6 362.8 242.2 360.9 C238.9 358.3 235.8 358.4 233.1 361.3 C230.3 364.3 230.4 367.5 233.5 370.6 C236.2 373.3 239.8 373.3 243 370.4 C244.4 369.1 244.8 369.2 246.3 370.8 C247.9 372.5 247.8 372.7 246.1 374.3 C244.3 375.9 239.2 378 237 378 C236.4 378 234.7 377.3 233.2 376.6 M254.9 375.9 C245.8 369.9 248.6 356.4 259.4 354.4 C263.7 353.6 268.4 356 271 360.2 C274.4 365.9 273 371.5 267.2 375.7 C263.2 378.5 258.9 378.6 254.9 375.9 M256.5 370.5 C253.3 367.4 253.3 364.5 256.4 361.4 C257.8 360.1 259.8 359 261 359 C262.1 359 264.1 360.1 265.5 361.4 C268.6 364.5 268.6 367.4 265.5 370.5 C262.3 373.6 259.6 373.6 256.5 370.5 M276.5 377.3 C276.2 376.9 276 375.8 276 374.8 C276 373.2 276.8 373 283.3 373 C288.2 373 291.1 372.5 291.8 371.6 C293.7 369.3 291 368 284.3 368 C277 368 274 365.9 274 361 C274 356 277.8 354 287.1 354 C294.8 354 295 354 295 356.5 C295 358.9 294.8 359 287.4 359 C281.6 359 279.8 359.3 279.3 360.5 C278.4 362.9 279.6 363.4 286.5 363.6 C292.9 363.7 295.2 364.7 297 368 C298.3 370.5 296.3 375.5 293.4 376.8 C290.8 378 277.3 378.4 276.5 377.3 M304.9 376.3 C300.4 373.9 299 370.2 299 361.5 C299 354.6 299.1 354 301 354 C302.7 354 303 354.6 303 359.3 C303 366.7 304.5 370.5 308.1 372 C310.7 373.1 311.4 373 313.8 371.2 C316.2 369.4 316.5 368.6 316.7 361.6 C317 354.2 317.1 354 319.5 354 C321.9 354 322 354.1 322 361.8 C322 370.8 320.2 374.1 314.3 376.6 C310 378.3 308.6 378.3 304.9 376.3 M332.1 377 C328.5 375.3 325 369.9 325 366.3 C325 358.5 330.1 354 338.9 354 L344 354 344 349 C344 344.3 344.1 344 346.5 344 L349 344 349 355.5 C349 368.3 347.7 372.8 343.5 375.4 C340.3 377.4 334.5 378.2 332.1 377 M332.5 370.9 C329.4 368.3 329.1 363.8 332 361 C333.4 359.5 335.3 359 339 359 L344 359 344 363.3 C344 370.9 337.5 375.1 332.5 370.9 M159.5 374.9 C158.2 373.8 156.6 371.3 155.9 369.4 C152.5 359.1 164 350.1 172.9 356.1 C176.8 358.8 177.2 359.8 174.8 361.3 C173.5 362.1 172.6 362 171.2 360.7 C168.5 358.3 164.7 358.5 162.1 361.3 C159.3 364.3 159.4 367.5 162.4 370.5 C165.4 373.5 167.9 373.6 171.2 371 C173.6 369.1 173.7 369.1 175.4 370.9 C177 372.6 176.9 372.8 174.5 374.8 C171 377.7 162.9 377.8 159.5 374.9 M90.5 286.6 C79.7 282.3 74 273.1 74 260.3 C74 254.2 76.1 252 82 252 C86.8 252 90 255.3 90 260.2 C90 265.2 90.7 266.8 94 268.5 C98.5 270.8 105.3 270.4 108.6 267.5 L111.5 265.1 111.8 248.5 L112.1 232 101.2 232 C91.1 232 90.1 231.8 88.1 229.6 C85 226.3 85.2 220.6 88.5 217.3 C91 214.8 91 214.8 107.4 215.1 C121.8 215.4 124 215.7 125.8 217.4 C127.9 219.2 128 220.1 128 244.3 C128 267.5 127.8 269.6 125.9 273.6 C123.1 279.4 117.1 284.5 111 286.4 C104.7 288.3 95.1 288.4 90.5 286.6 M152.3 286.5 C147.1 284.5 141.9 279.9 138.5 274.4 L135.5 269.6 135.2 244.8 C134.9 221 134.9 220 136.9 218 C139.9 215 146.3 215.2 149.5 218.4 C151.9 220.9 152 220.9 152 241.5 C152 264.2 152.5 266.6 157.9 269.4 C159.5 270.3 162.7 271 164.9 271 C168.1 271 169.7 270.2 172.7 267.5 L176.5 264.1 176.7 241.8 C177 220.5 177.1 219.4 179.1 217.7 C182.1 215.2 189.4 215.4 192 218 C194 220 194 221 193.8 243.8 C193.5 266.7 193.4 267.6 191 272.3 C188.2 277.7 183.8 282 177.9 284.9 C172.6 287.6 157.5 288.6 152.3 286.5 M202.5 285.5 L200 283 200 258.5 C200 234.3 200 233.8 202.4 229 C208.9 216.2 224.7 211.4 237.9 218.2 L243 220.9 246.6 218.4 C251 215.4 255.2 214.6 262.9 215.1 C270.7 215.7 277.3 219.7 281.4 226.4 L284.5 231.3 284.7 256.8 C285 281.9 285 282.2 282.8 284.6 C280.4 287.2 274.6 287.8 271.9 285.7 C268.3 283 268 280.3 268 259.1 C268 247.6 267.7 237.4 267.3 236.5 C266.3 233.9 261.2 231.7 257.9 232.5 C256.3 232.8 254.1 234.3 253 235.7 C251.1 238 251 239.7 251 260 C251 272 250.7 282.5 250.3 283.4 C249.6 285.4 244.8 288 241.9 288 C240.8 288 238.5 286.6 236.9 285 L234 282.1 234 260 L234 237.8 231 234.9 C227.2 231.1 223.7 231.1 219.9 234.9 L217 237.8 217 260.4 L217 283 214.5 285.5 C211.1 288.8 205.8 288.8 202.5 285.5 M374.6 285.6 C364.6 281.3 358.5 275.4 354.1 266 C351.8 261.2 351.5 259.1 351.5 250.9 C351.5 242.2 351.7 240.9 354.7 234.8 C358.6 227 364.8 220.8 372.8 217.1 C377.7 214.8 379.7 214.5 388.5 214.5 C397.2 214.5 399.2 214.8 404.1 217.1 C412.1 220.8 418.3 227 422.2 234.8 C425.2 240.9 425.5 242.1 425.5 251.4 C425.5 260.9 425.3 261.8 422.1 267.7 C418.1 275 412.2 280.8 405 284.4 C400.9 286.5 398 287 390 287.5 C381 287.9 379.4 287.7 374.6 285.6 M380.2 269.1 C373.5 265.8 368 257.6 368 251 C368 241.1 378.2 231 388.2 231 C398.7 230.9 408.9 240.7 408.9 251 C409 255.5 404.8 264 401.2 266.6 C394.9 271.2 386.6 272.2 380.2 269.1 M295.5 284.9 L293 282.8 293 250.9 L293 219 295.7 217.2 C298 215.7 300.7 215.5 314.4 215.5 C332.1 215.5 335.2 216.3 341.1 222.6 C347.7 229.5 347.6 240.4 341.1 246.3 L339 248.2 342.5 252.3 C351.2 262.4 349.2 277.4 338.4 283.5 C334.2 285.8 332.8 286 316 286.5 C298.8 286.9 297.8 286.8 295.5 284.9 M310 264.5 L310 258 318 258 C324.6 258 326.3 258.3 328 260 C330.7 262.7 330.5 266.2 327.5 268.8 C325.4 270.6 323.7 271 317.5 271 L310 271 310 264.5 M310 237 L310 231 316.8 231 C322.2 231 324.2 231.4 326.3 233 C329.6 235.6 329.7 238 326.5 240.8 C324.4 242.6 322.7 243 317 243 L310 243 310 237 "/>
 </g>
 <g fill="#ffffff" fill-rule="evenodd">
  <path d="M224.5 456.5 C200.4 452.9 179.2 446.6 160.5 437.6 C50.9 384.8 8.9 253 68.1 147.9 C100 91.3 157.1 52.7 222.6 43.4 C237 41.3 264.1 41.4 278.8 43.4 C308.7 47.7 338.1 58.6 363 74.7 L373.5 81.5 380 79.2 C392.6 74.8 405 77.9 414.3 87.9 C422.8 97.1 425.3 109.7 421 121.1 L419 126.3 425 135.6 C443.5 164.2 454.3 197.4 457.1 234.2 C463.1 313.1 423.2 389.6 355.4 429.5 C330.7 444 302.1 453.5 272.7 456.9 C260.1 458.4 235.5 458.2 224.5 456.5 M227.2 435.5 C190.5 430 159.1 416.6 132.5 394.9 C122.1 386.5 105.4 368.7 97.7 357.9 C89 345.8 77.3 322.6 72.7 308.3 C60.1 269.6 60.2 228.9 73 190.5 C94.7 125.5 150.2 77.6 218 65.5 C230.8 63.2 257.8 62.4 271 63.9 C300 67.2 327.9 77.1 351.6 92.5 L359.7 97.7 359.2 107.2 C358.7 115.8 358.9 117.2 361.2 122.2 C364.6 129.6 370 135.3 376.8 138.7 C381.7 141.1 383.5 141.4 390.5 141.3 C394.9 141.2 399.3 141 400.4 140.8 C404.8 140 420.5 168.7 427.8 190.5 C444.1 239.6 440 290.5 415.9 336.9 C407.8 352.5 398.6 365.2 385.5 378.8 C368.7 396.1 354.5 406.7 333.2 417.4 C301.8 433.2 259.8 440.3 227.2 435.5 M185.1 376.6 C180.9 374.5 179 371.2 179 365.9 C179 360.1 181.6 356.4 187 354.8 C191.3 353.5 195.5 354.7 198.4 357.8 C199.8 359.4 199.4 360 193.9 365.5 C190.6 368.7 188 371.7 188 372.2 C188 373.7 191.7 372.9 194.2 371 C196.6 369.1 196.8 369.1 198.3 370.8 C199.8 372.5 199.8 372.7 198.2 374.2 C196.2 376 191.7 378 189.5 378 C188.6 378 186.7 377.3 185.1 376.6 M183 365.9 C183 363.3 187.3 359 189.9 359 C192.9 359 192.5 360.1 188 364.2 C183.3 368.5 183 368.7 183 365.9 M201 371.7 C201.1 363.3 202.7 359 206.8 356.2 C211.2 353.3 214.7 353.3 219 356.2 C223.7 359.4 224.9 362.3 224.9 370.7 C224.9 377.8 224.9 378 222.5 378 C220 378 220 377.8 220 370.6 C220 364.3 219.6 363 217.6 361.1 C214.6 358.3 211.4 358.4 208.4 361.4 C206.3 363.5 206 364.8 206 370.9 C206 377.8 205.9 378 203.5 378 C201 378 201 377.7 201 371.7 M233.2 376.6 C228.3 374.2 226.5 371.2 226.5 365.9 C226.5 361.9 227 360.5 229.4 358 C234.1 353.1 239.9 352.8 245.4 357.1 C247.9 359.1 248 359.3 246.4 361 C244.7 362.8 244.6 362.8 242.2 360.9 C238.9 358.3 235.8 358.4 233.1 361.3 C230.3 364.3 230.4 367.5 233.5 370.6 C236.2 373.3 239.8 373.3 243 370.4 C244.4 369.1 244.8 369.2 246.3 370.8 C247.9 372.5 247.8 372.7 246.1 374.3 C244.3 375.9 239.2 378 237 378 C236.4 378 234.7 377.3 233.2 376.6 M254.9 375.9 C245.8 369.9 248.6 356.4 259.4 354.4 C263.7 353.6 268.4 356 271 360.2 C274.4 365.9 273 371.5 267.2 375.7 C263.2 378.5 258.9 378.6 254.9 375.9 M256.5 370.5 C253.3 367.4 253.3 364.5 256.4 361.4 C257.8 360.1 259.8 359 261 359 C262.1 359 264.1 360.1 265.5 361.4 C268.6 364.5 268.6 367.4 265.5 370.5 C262.3 373.6 259.6 373.6 256.5 370.5 M276.5 377.3 C276.2 376.9 276 375.8 276 374.8 C276 373.2 276.8 373 283.3 373 C288.2 373 291.1 372.5 291.8 371.6 C293.7 369.3 291 368 284.3 368 C277 368 274 365.9 274 361 C274 356 277.8 354 287.1 354 C294.8 354 295 354 295 356.5 C295 358.9 294.8 359 287.4 359 C281.6 359 279.8 359.3 279.3 360.5 C278.4 362.9 279.6 363.4 286.5 363.6 C292.9 363.7 295.2 364.7 297 368 C298.3 370.5 296.3 375.5 293.4 376.8 C290.8 378 277.3 378.4 276.5 377.3 M304.9 376.3 C300.4 373.9 299 370.2 299 361.5 C299 354.6 299.1 354 301 354 C302.7 354 303 354.6 303 359.3 C303 366.7 304.5 370.5 308.1 372 C310.7 373.1 311.4 373 313.8 371.2 C316.2 369.4 316.5 368.6 316.7 361.6 C317 354.2 317.1 354 319.5 354 C321.9 354 322 354.1 322 361.8 C322 370.8 320.2 374.1 314.3 376.6 C310 378.3 308.6 378.3 304.9 376.3 M332.1 377 C328.5 375.3 325 369.9 325 366.3 C325 358.5 330.1 354 338.9 354 L344 354 344 349 C344 344.3 344.1 344 346.5 344 L349 344 349 355.5 C349 368.3 347.7 372.8 343.5 375.4 C340.3 377.4 334.5 378.2 332.1 377 M332.5 370.9 C329.4 368.3 329.1 363.8 332 361 C333.4 359.5 335.3 359 339 359 L344 359 344 363.3 C344 370.9 337.5 375.1 332.5 370.9 M159.5 374.9 C158.2 373.8 156.6 371.3 155.9 369.4 C152.5 359.1 164 350.1 172.9 356.1 C176.8 358.8 177.2 359.8 174.8 361.3 C173.5 362.1 172.6 362 171.2 360.7 C168.5 358.3 164.7 358.5 162.1 361.3 C159.3 364.3 159.4 367.5 162.4 370.5 C165.4 373.5 167.9 373.6 171.2 371 C173.6 369.1 173.7 369.1 175.4 370.9 C177 372.6 176.9 372.8 174.5 374.8 C171 377.7 162.9 377.8 159.5 374.9 M90.5 286.6 C79.7 282.3 74 273.1 74 260.3 C74 254.2 76.1 252 82 252 C86.8 252 90 255.3 90 260.2 C90 265.2 90.7 266.8 94 268.5 C98.5 270.8 105.3 270.4 108.6 267.5 L111.5 265.1 111.8 248.5 L112.1 232 101.2 232 C91.1 232 90.1 231.8 88.1 229.6 C85 226.3 85.2 220.6 88.5 217.3 C91 214.8 91 214.8 107.4 215.1 C121.8 215.4 124 215.7 125.8 217.4 C127.9 219.2 128 220.1 128 244.3 C128 267.5 127.8 269.6 125.9 273.6 C123.1 279.4 117.1 284.5 111 286.4 C104.7 288.3 95.1 288.4 90.5 286.6 M152.3 286.5 C147.1 284.5 141.9 279.9 138.5 274.4 L135.5 269.6 135.2 244.8 C134.9 221 134.9 220 136.9 218 C139.9 215 146.3 215.2 149.5 218.4 C151.9 220.9 152 220.9 152 241.5 C152 264.2 152.5 266.6 157.9 269.4 C159.5 270.3 162.7 271 164.9 271 C168.1 271 169.7 270.2 172.7 267.5 L176.5 264.1 176.7 241.8 C177 220.5 177.1 219.4 179.1 217.7 C182.1 215.2 189.4 215.4 192 218 C194 220 194 221 193.8 243.8 C193.5 266.7 193.4 267.6 191 272.3 C188.2 277.7 183.8 282 177.9 284.9 C172.6 287.6 157.5 288.6 152.3 286.5 M202.5 285.5 L200 283 200 258.5 C200 234.3 200 233.8 202.4 229 C208.9 216.2 224.7 211.4 237.9 218.2 L243 220.9 246.6 218.4 C251 215.4 255.2 214.6 262.9 215.1 C270.7 215.7 277.3 219.7 281.4 226.4 L284.5 231.3 284.7 256.8 C285 281.9 285 282.2 282.8 284.6 C280.4 287.2 274.6 287.8 271.9 285.7 C268.3 283 268 280.3 268 259.1 C268 247.6 267.7 237.4 267.3 236.5 C266.3 233.9 261.2 231.7 257.9 232.5 C256.3 232.8 254.1 234.3 253 235.7 C251.1 238 251 239.7 251 260 C251 272 250.7 282.5 250.3 283.4 C249.6 285.4 244.8 288 241.9 288 C240.8 288 238.5 286.6 236.9 285 L234 282.1 234 260 L234 237.8 231 234.9 C227.2 231.1 223.7 231.1 219.9 234.9 L217 237.8 217 260.4 L217 283 214.5 285.5 C211.1 288.8 205.8 288.8 202.5 285.5 M374.6 285.6 C364.6 281.3 358.5 275.4 354.1 266 C351.8 261.2 351.5 259.1 351.5 250.9 C351.5 242.2 351.7 240.9 354.7 234.8 C358.6 227 364.8 220.8 372.8 217.1 C377.7 214.8 379.7 214.5 388.5 214.5 C397.2 214.5 399.2 214.8 404.1 217.1 C412.1 220.8 418.3 227 422.2 234.8 C425.2 240.9 425.5 242.1 425.5 251.4 C425.5 260.9 425.3 261.8 422.1 267.7 C418.1 275 412.2 280.8 405 284.4 C400.9 286.5 398 287 390 287.5 C381 287.9 379.4 287.7 374.6 285.6 M380.2 269.1 C373.5 265.8 368 257.6 368 251 C368 241.1 378.2 231 388.2 231 C398.7 230.9 408.9 240.7 408.9 251 C409 255.5 404.8 264 401.2 266.6 C394.9 271.2 386.6 272.2 380.2 269.1 M295.5 284.9 L293 282.8 293 250.9 L293 219 295.7 217.2 C298 215.7 300.7 215.5 314.4 215.5 C332.1 215.5 335.2 216.3 341.1 222.6 C347.7 229.5 347.6 240.4 341.1 246.3 L339 248.2 342.5 252.3 C351.2 262.4 349.2 277.4 338.4 283.5 C334.2 285.8 332.8 286 316 286.5 C298.8 286.9 297.8 286.8 295.5 284.9 M310 264.5 L310 258 318 258 C324.6 258 326.3 258.3 328 260 C330.7 262.7 330.5 266.2 327.5 268.8 C325.4 270.6 323.7 271 317.5 271 L310 271 310 264.5 M310 237 L310 231 316.8 231 C322.2 231 324.2 231.4 326.3 233 C329.6 235.6 329.7 238 326.5 240.8 C324.4 242.6 322.7 243 317 243 L310 243 310 237 M384.2 125.6 C371.4 119.2 370.5 101.4 382.6 94.3 C391.2 89.3 403.1 92.6 407.6 101.2 C409.9 105.7 409.1 115.5 406.1 119.8 C401.6 126.1 390.9 128.9 384.2 125.6 "/>
 </g>
 <g fill="#9fe800" fill-rule="evenodd">
  <path d="M384.2 125.6 C371.4 119.2 370.5 101.4 382.6 94.3 C391.2 89.3 403.1 92.6 407.6 101.2 C409.9 105.7 409.1 115.5 406.1 119.8 C401.6 126.1 390.9 128.9 384.2 125.6 "/>
 </g>
</svg>