<?xml version="1.0" encoding="utf-8"?>
<!DOCTYPE svg PUBLIC "-//W3C//DTD SVG 1.0//EN" "http://www.w3.org/TR/2001/REC-SVG-20010904/DTD/svg10.dtd">
<svg version="1.0" xmlns="http://www.w3.org/2000/svg" width="500px" height="500px" viewBox="0 0 500 500" preserveAspectRatio="xMidYMid meet">
 <g fill="#ffcd00" fill-rule="evenodd">
  <path d="M230.2 436 C194.9 432 160.8 417.7 132.9 395.2 C120.8 385.5 103.8 367.1 95.9 355.3 C79.7 331 69.4 304.5 65.5 276.9 C63.5 263.2 63.5 234.4 65.5 221.5 C76.4 148.3 131.3 87.3 202.7 68.9 C221.1 64.2 235.6 62.6 257 63.3 C286.7 64.1 306.7 69.2 333.5 82.5 C353 92.2 352.2 91.5 351 97.7 C349.9 103.5 351.8 113.3 355 118.6 C358.2 123.7 366.5 130.6 371.6 132.4 C377.1 134.2 387.2 134.4 392 132.8 C395.2 131.7 395.5 131.8 398.2 135 C408.3 147.2 422.4 173.4 428.3 191 C434.4 209.2 436.2 220.8 436.7 244.5 C437.2 266.9 436 280 431.9 296.1 C418.1 350.4 377.6 398.2 326.1 420.9 C296.5 433.9 261.2 439.4 230.2 436 M162.2 357.6 C157.3 355.2 155.5 352.2 155.5 346.9 C155.5 342.9 156 341.5 158.4 339 C163.1 334.1 168.9 333.8 174.4 338.1 C176.9 340.1 177 340.3 175.4 342 C173.7 343.8 173.6 343.8 171.2 341.9 C167.7 339.2 164.5 339.4 162 342.6 C159.3 346 159.4 348.5 162.4 351.5 C165.4 354.5 167.9 354.6 171.2 352 C173.6 350.1 173.8 350.1 175.3 351.8 C176.8 353.5 176.8 353.7 175.2 355.2 C173.2 357 168.7 359 166.5 359 C165.6 359 163.7 358.3 162.2 357.6 M183.9 356.9 C179.5 354 177.4 348.6 178.9 343.8 C180.6 337.9 186.9 334 192.3 335.3 C193.6 335.6 195.9 336.9 197.4 338.1 L200.1 340.2 194 346.4 C190.7 349.7 188 352.8 188 353.2 C188 354.7 191.7 353.9 194.2 352 C196.6 350.1 196.8 350.1 198.3 351.8 C199.8 353.5 199.8 353.8 197.4 355.8 C193.8 358.9 187.7 359.4 183.9 356.9 M183.4 348 C182.4 346.2 185.4 341.5 188.2 340.5 C192.4 339.1 192.3 340.6 188 345 C185.8 347.2 183.7 348.5 183.4 348 M201 351.6 C201 345.6 201.4 343.6 203.2 340.9 C207.4 334.7 213.3 333.3 219 337.2 C223.7 340.4 224.9 343.3 224.9 351.7 C224.9 358.8 224.9 359 222.5 359 C220 359 220 358.8 220 351.5 C220 344.7 219.7 343.9 217.3 342 C213.9 339.3 211.4 339.4 208.4 342.4 C206.3 344.5 206 345.8 206 351.9 C206 358.8 205.9 359 203.5 359 C201 359 201 358.8 201 351.6 M233.2 357.6 C228.9 355.5 226.8 352.4 226.2 347.7 C225.8 343.8 226.1 342.8 228.9 339.6 C233.8 334.1 239.6 333.6 245.4 338.1 C247.9 340.1 248 340.3 246.4 342 C244.7 343.8 244.6 343.8 242.2 341.9 C238.9 339.3 235.8 339.4 233.1 342.3 C230.3 345.3 230.4 348.5 233.5 351.6 C236.2 354.3 239.8 354.3 243 351.4 C244.4 350.1 244.8 350.2 246.3 351.8 C247.9 353.5 247.9 353.7 246.2 355.2 C244.2 357 239.7 359 237.5 359 C236.6 359 234.7 358.3 233.2 357.6 M256.2 357.8 C252 355.1 250 352.5 249.4 348.9 C248 340.2 256.9 332.6 264.9 335.9 C271.3 338.6 274.7 346.4 271.7 351.9 C268.8 357.5 260.6 360.6 256.2 357.8 M256.5 351.5 C253.3 348.4 253.3 345.5 256.4 342.4 C257.8 341.1 259.8 340 261 340 C262.1 340 264.1 341.1 265.5 342.4 C268.6 345.5 268.6 348.4 265.5 351.5 C262.3 354.6 259.6 354.6 256.5 351.5 M276.5 358.3 C276.2 357.9 276 356.8 276 355.8 C276 354.2 276.8 354 283.3 354 C288.2 354 291.1 353.5 291.8 352.6 C293.7 350.3 291 349 284.3 349 C277 349 274 346.9 274 342 C274 337 277.8 335 287.1 335 C294.8 335 295 335 295 337.4 C295 339.8 294.7 339.9 287.2 340.2 C280.8 340.4 279.4 340.7 279.1 342.2 C278.8 343.7 279.6 344 285.2 344 C291.8 344 295 345.3 297 349.1 C298.5 351.8 296.6 356.3 293.4 357.8 C290.8 359 277.3 359.4 276.5 358.3 M304.9 357.3 C300.4 354.9 299 351.2 299 342.5 C299 335.1 299 335 301.5 335 C303.9 335 304 335.1 304 342.4 C304 350.2 304.9 352.2 309.1 353.5 C310.5 353.9 312.1 353.5 313.8 352.2 C316.2 350.4 316.5 349.5 316.7 342.6 C317 335.2 317.1 335 319.5 335 C321.9 335 322 335.1 322 343 C322 350.8 321.9 351.1 318.5 354.5 C314.2 358.7 309.3 359.7 304.9 357.3 M332.1 358 C328.2 356.1 325 351 325 346.6 C325 339.1 330 335 338.9 335 L344 335 344 330 C344 325.3 344.1 325 346.5 325 L349 325 348.9 337.2 C348.9 347.7 348.7 349.9 346.9 352.8 C343.9 357.6 336.6 360.3 332.1 358 M332.5 351.9 C329.4 349.3 329.1 344.8 332 342 C333.4 340.5 335.3 340 339.1 340 L344.2 340 343.7 345 C343.4 348 342.5 350.7 341.6 351.5 C338.8 354 335.2 354.1 332.5 351.9 M324.4 286 C310.3 284 297.2 278.3 293.4 272.5 C291.2 269.1 290.4 259.2 291.9 254.5 C295.6 243.3 308.5 236.1 334.9 230.5 C341.1 229.2 346.3 227.9 346.5 227.7 C346.7 227.5 347.2 223.5 347.6 218.8 C348.2 210.6 348.1 210.2 345.9 208.6 C340.6 204.9 336.1 207 329.5 216.3 C327.3 219.4 324 222.6 322.3 223.4 C316.1 226.4 306.5 224.6 304 220 C303.4 218.9 303 216.2 303 214 C303 210.6 303.6 209.2 307 205.5 C318 193.6 350.6 189.2 369.1 197.1 C375.5 199.8 378 203 378 208.4 C378 214.3 371.7 256.5 368.3 273.2 C367.3 278.1 363.3 281.8 356.4 283.9 C348.7 286.3 333.6 287.3 324.4 286 M325 268.2 C320.4 264.2 320.6 255.9 325.4 250.2 C328.2 246.9 336 242.5 340.8 241.4 L344.2 240.7 343.5 247.6 C342.5 258.1 340.4 264.4 336.9 267.4 C333.4 270.4 327.9 270.8 325 268.2 M229.7 284.1 C219.5 280.3 214 274.9 209.8 265 C206.1 256.1 205 244 206.9 234.7 C209.9 220.1 221.1 204.8 233.5 198.2 C263.3 182.4 294.6 198.3 290.1 226.9 C289.5 231.4 289.4 231.4 284 232.7 C280.9 233.3 268.9 235.5 257.3 237.4 C245.6 239.4 235.3 241.3 234.4 241.6 C233 242.1 232.8 243.1 233.3 247.1 C234.3 256 240.2 260.9 250.7 261.8 C257.9 262.4 264.1 260.6 273 255.4 C277.2 252.9 281.5 251 282.7 251 C288.1 251 288 257.6 282.4 265.2 C277.6 271.8 270.4 277.2 261.5 280.8 C255.1 283.5 252.3 284 243 284.5 C236.9 284.7 230.9 284.6 229.7 284.1 M233.4 223.8 C234.4 214.1 249.3 206.3 256.8 211.6 C259.1 213.2 262 218.5 262 221.3 C262 222.3 258.5 223.3 250 224.8 C243.4 226 236.8 227.2 235.5 227.5 C233.1 227.9 233 227.8 233.4 223.8 M157.7 282.4 L143.4 281.9 137.6 257.7 C131.2 231.1 119 177.3 119 175.8 C119 175.4 126.3 175 135.2 175 L151.5 175 154.7 190.7 C156.4 199.4 159.6 214.3 161.6 223.8 L165.4 241.2 169.2 233.3 C171.2 229 175.9 218.7 179.5 210.5 C183.1 202.2 187.1 193.2 188.4 190.5 C189.6 187.7 191.7 182.8 193 179.6 L195.5 173.8 204.4 174.4 C209.3 174.7 214.9 174.9 217 175 L220.8 175 217.5 182.7 C215.7 187 211 197.7 207 206.5 C203 215.3 196.9 229 193.3 237 C189.7 244.9 186 253.3 185 255.5 C184 257.7 181.1 264.3 178.5 270.2 C176 276.1 173.5 281.4 173 282 C172.3 282.6 166.6 282.8 157.7 282.4 "/>
 </g>
 <g fill="#ffffff" fill-rule="evenodd">
  <path d="M231.7 457.4 C229.9 457.1 223.9 456.2 218.4 455.4 C132.7 442.5 63.1 376.4 45.4 291.1 C31.8 225.3 51.7 156.3 98.7 106.8 C154.4 48.2 239.3 26.8 315.7 52.1 C328 56.2 350.5 66.5 359.2 72.1 L363.9 75.1 368.7 72.8 C372.7 70.8 375 70.5 383 70.5 C391.6 70.5 392.9 70.7 397.8 73.4 C403.8 76.8 408.9 82 412.1 88.2 C415.1 94 415.8 105.1 413.6 111.9 L411.9 117 418.5 126.2 C434.1 148 443.9 168.7 450.4 194.3 C463.5 245.4 458.7 296 436.5 341.4 C425.6 363.7 413.7 380.3 396 398 C365.2 428.7 327 448.1 283.2 455.4 C273.8 457 237.7 458.4 231.7 457.4 M230.2 436 C194.9 432 160.8 417.7 132.9 395.2 C120.8 385.5 103.8 367.1 95.9 355.3 C79.7 331 69.4 304.5 65.5 276.9 C63.5 263.2 63.5 234.4 65.5 221.5 C76.4 148.3 131.3 87.3 202.7 68.9 C221.1 64.2 235.6 62.6 257 63.3 C286.7 64.1 306.7 69.2 333.5 82.5 C353 92.2 352.2 91.5 351 97.7 C349.9 103.5 351.8 113.3 355 118.6 C358.2 123.7 366.5 130.6 371.6 132.4 C377.1 134.2 387.2 134.4 392 132.8 C395.2 131.7 395.5 131.8 398.2 135 C408.3 147.2 422.4 173.4 428.3 191 C434.4 209.2 436.2 220.8 436.7 244.5 C437.2 266.9 436 280 431.9 296.1 C418.1 350.4 377.6 398.2 326.1 420.9 C296.5 433.9 261.2 439.4 230.2 436 M376.4 118.5 C369.5 115.8 365 109.2 365 102.1 C365 94.4 368.4 89.1 375.5 85.8 C380.7 83.4 385.3 83.5 390.6 86 C401.4 91.3 403.7 104.7 395.4 113.8 C390.4 119.4 383.2 121.2 376.4 118.5 "/>
 </g>
 <g fill="#ff1b15" fill-rule="evenodd">
  <path d="M162.2 357.6 C157.3 355.2 155.5 352.2 155.5 346.9 C155.5 342.9 156 341.5 158.4 339 C163.1 334.1 168.9 333.8 174.4 338.1 C176.9 340.1 177 340.3 175.4 342 C173.7 343.8 173.6 343.8 171.2 341.9 C167.7 339.2 164.5 339.4 162 342.6 C159.3 346 159.4 348.5 162.4 351.5 C165.4 354.5 167.9 354.6 171.2 352 C173.6 350.1 173.8 350.1 175.3 351.8 C176.8 353.5 176.8 353.7 175.2 355.2 C173.2 357 168.7 359 166.5 359 C165.6 359 163.7 358.3 162.2 357.6 "/>
  <path d="M183.9 356.9 C179.5 354 177.4 348.6 178.9 343.8 C180.6 337.9 186.9 334 192.3 335.3 C193.6 335.6 195.9 336.9 197.4 338.1 L200.1 340.2 194 346.4 C190.7 349.7 188 352.8 188 353.2 C188 354.7 191.7 353.9 194.2 352 C196.6 350.1 196.8 350.1 198.3 351.8 C199.8 353.5 199.8 353.8 197.4 355.8 C193.8 358.9 187.7 359.4 183.9 356.9 M183.4 348 C182.4 346.2 185.4 341.5 188.2 340.5 C192.4 339.1 192.3 340.6 188 345 C185.8 347.2 183.7 348.5 183.4 348 "/>
  <path d="M201 351.6 C201 345.6 201.4 343.6 203.2 340.9 C207.4 334.7 213.3 333.3 219 337.2 C223.7 340.4 224.9 343.3 224.9 351.7 C224.9 358.8 224.9 359 222.5 359 C220 359 220 358.8 220 351.5 C220 344.7 219.7 343.9 217.3 342 C213.9 339.3 211.4 339.4 208.4 342.4 C206.3 344.5 206 345.8 206 351.9 C206 358.8 205.9 359 203.5 359 C201 359 201 358.8 201 351.6 "/>
  <path d="M233.2 357.6 C228.9 355.5 226.8 352.4 226.2 347.7 C225.8 343.8 226.1 342.8 228.9 339.6 C233.8 334.1 239.6 333.6 245.4 338.1 C247.9 340.1 248 340.3 246.4 342 C244.7 343.8 244.6 343.8 242.2 341.9 C238.9 339.3 235.8 339.4 233.1 342.3 C230.3 345.3 230.4 348.5 233.5 351.6 C236.2 354.3 239.8 354.3 243 351.4 C244.4 350.1 244.8 350.2 246.3 351.8 C247.9 353.5 247.9 353.7 246.2 355.2 C244.2 357 239.7 359 237.5 359 C236.6 359 234.7 358.3 233.2 357.6 "/>
  <path d="M256.2 357.8 C252 355.1 250 352.5 249.4 348.9 C248 340.2 256.9 332.6 264.9 335.9 C271.3 338.6 274.7 346.4 271.7 351.9 C268.8 357.5 260.6 360.6 256.2 357.8 M256.5 351.5 C253.3 348.4 253.3 345.5 256.4 342.4 C257.8 341.1 259.8 340 261 340 C262.1 340 264.1 341.1 265.5 342.4 C268.6 345.5 268.6 348.4 265.5 351.5 C262.3 354.6 259.6 354.6 256.5 351.5 "/>
  <path d="M276.5 358.3 C276.2 357.9 276 356.8 276 355.8 C276 354.2 276.8 354 283.3 354 C288.2 354 291.1 353.5 291.8 352.6 C293.7 350.3 291 349 284.3 349 C277 349 274 346.9 274 342 C274 337 277.8 335 287.1 335 C294.8 335 295 335 295 337.4 C295 339.8 294.7 339.9 287.2 340.2 C280.8 340.4 279.4 340.7 279.1 342.2 C278.8 343.7 279.6 344 285.2 344 C291.8 344 295 345.3 297 349.1 C298.5 351.8 296.6 356.3 293.4 357.8 C290.8 359 277.3 359.4 276.5 358.3 "/>
  <path d="M304.9 357.3 C300.4 354.9 299 351.2 299 342.5 C299 335.1 299 335 301.5 335 C303.9 335 304 335.1 304 342.4 C304 350.2 304.9 352.2 309.1 353.5 C310.5 353.9 312.1 353.5 313.8 352.2 C316.2 350.4 316.5 349.5 316.7 342.6 C317 335.2 317.1 335 319.5 335 C321.9 335 322 335.1 322 343 C322 350.8 321.9 351.1 318.5 354.5 C314.2 358.7 309.3 359.7 304.9 357.3 "/>
  <path d="M332.1 358 C328.2 356.1 325 351 325 346.6 C325 339.1 330 335 338.9 335 L344 335 344 330 C344 325.3 344.1 325 346.5 325 L349 325 348.9 337.2 C348.9 347.7 348.7 349.9 346.9 352.8 C343.9 357.6 336.6 360.3 332.1 358 M332.5 351.9 C329.4 349.3 329.1 344.8 332 342 C333.4 340.5 335.3 340 339.1 340 L344.2 340 343.7 345 C343.4 348 342.5 350.7 341.6 351.5 C338.8 354 335.2 354.1 332.5 351.9 "/>
  <path d="M324.4 286 C310.3 284 297.2 278.3 293.4 272.5 C291.2 269.1 290.4 259.2 291.9 254.5 C295.6 243.3 308.5 236.1 334.9 230.5 C341.1 229.2 346.3 227.9 346.5 227.7 C346.7 227.5 347.2 223.5 347.6 218.8 C348.2 210.6 348.1 210.2 345.9 208.6 C340.6 204.9 336.1 207 329.5 216.3 C327.3 219.4 324 222.6 322.3 223.4 C316.1 226.4 306.5 224.6 304 220 C303.4 218.9 303 216.2 303 214 C303 210.6 303.6 209.2 307 205.5 C318 193.6 350.6 189.2 369.1 197.1 C375.5 199.8 378 203 378 208.4 C378 214.3 371.7 256.5 368.3 273.2 C367.3 278.1 363.3 281.8 356.4 283.9 C348.7 286.3 333.6 287.3 324.4 286 M325 268.2 C320.4 264.2 320.6 255.9 325.4 250.2 C328.2 246.9 336 242.5 340.8 241.4 L344.2 240.7 343.5 247.6 C342.5 258.1 340.4 264.4 336.9 267.4 C333.4 270.4 327.9 270.8 325 268.2 "/>
  <path d="M229.7 284.1 C219.5 280.3 214 274.9 209.8 265 C206.1 256.1 205 244 206.9 234.7 C209.9 220.1 221.1 204.8 233.5 198.2 C263.3 182.4 294.6 198.3 290.1 226.9 C289.5 231.4 289.4 231.4 284 232.7 C280.9 233.3 268.9 235.5 257.3 237.4 C245.6 239.4 235.3 241.3 234.4 241.6 C233 242.1 232.8 243.1 233.3 247.1 C234.3 256 240.2 260.9 250.7 261.8 C257.9 262.4 264.1 260.6 273 255.4 C277.2 252.9 281.5 251 282.7 251 C288.1 251 288 257.6 282.4 265.2 C277.6 271.8 270.4 277.2 261.5 280.8 C255.1 283.5 252.3 284 243 284.5 C236.9 284.7 230.9 284.6 229.7 284.1 M233.4 223.8 C234.4 214.1 249.3 206.3 256.8 211.6 C259.1 213.2 262 218.5 262 221.3 C262 222.3 258.5 223.3 250 224.8 C243.4 226 236.8 227.2 235.5 227.5 C233.1 227.9 233 227.8 233.4 223.8 "/>
  <path d="M157.7 282.4 L143.4 281.9 137.6 257.7 C131.2 231.1 119 177.3 119 175.8 C119 175.4 126.3 175 135.2 175 L151.5 175 154.7 190.7 C156.4 199.4 159.6 214.3 161.6 223.8 L165.4 241.2 169.2 233.3 C171.2 229 175.9 218.7 179.5 210.5 C183.1 202.2 187.1 193.2 188.4 190.5 C189.6 187.7 191.7 182.8 193 179.6 L195.5 173.8 204.4 174.4 C209.3 174.7 214.9 174.9 217 175 L220.8 175 217.5 182.7 C215.7 187 211 197.7 207 206.5 C203 215.3 196.9 229 193.3 237 C189.7 244.9 186 253.3 185 255.5 C184 257.7 181.1 264.3 178.5 270.2 C176 276.1 173.5 281.4 173 282 C172.3 282.6 166.6 282.8 157.7 282.4 "/>
  <path d="M376.4 118.5 C369.5 115.8 365 109.2 365 102.1 C365 94.4 368.4 89.1 375.5 85.8 C380.7 83.4 385.3 83.5 390.6 86 C401.4 91.3 403.7 104.7 395.4 113.8 C390.4 119.4 383.2 121.2 376.4 118.5 "/>
 </g>
</svg>