<?xml version="1.0" encoding="utf-8"?>
<svg viewBox="-38.245 -139.858 446.509 434.355" width="376.848px" height="366.59px" xmlns="http://www.w3.org/2000/svg">
  <defs>
    <style type="text/css" id="style2">
	.st0{fill:#FFFFFF;}
	.st1{fill:none;}
</style>
  </defs>
  <path id="path14" class="st0" d="m 339.1276,69.070903 v 0 c -7.68785,0 -13.24418,6.274819 -13.24418,13.244174 0,6.96936 5.58028,13.24418 13.24418,13.24418 6.96936,0 12.54963,-6.27482 12.54963,-13.24418 0,-6.969355 -5.58027,-13.244174 -12.54963,-13.244174 z m -33.50562,25.123224 v 0 l 46.0792,-69.094853 h -23.01565 l -46.0792,69.094853 z m 59.32338,-11.13661 v 0 c 0,13.96267 -11.1845,25.123233 -25.12322,25.123233 H 269.36215 V 37.00227 c 0,-13.938719 11.18451,-25.817765 25.12323,-25.817765 h 70.50788 V 83.057517 Z M 362.19115,0 h -67.70577 c -20.21354,0 -37.00227,16.046292 -37.00227,37.00227 v 68.40031 c 0,7.6639 6.27482,13.93872 14.65721,13.93872 h 67.70577 c 20.21354,0 37.00227,-16.04629 37.00227,-36.307733 V 14.63326 C 376.82436,6.274819 370.54959,0 362.19115,0 Z m -79.58482,36.97832 v 0 c 0,7.6639 5.58028,13.244178 12.54964,13.244178 7.6639,0 13.24418,-5.580278 13.24418,-13.244178 0,-6.96936 -5.58028,-12.549637 -13.24418,-12.549637 -6.94541,0 -12.54964,5.580277 -12.54964,12.549637 z M 95.583211,107.43831 H 120.01189 V 27.182897 L 95.583211,37.648911 Z M 188.4122,74.651181 v 0 c -2.10757,6.969356 -9.07693,11.879046 -16.74083,11.879046 -9.77147,0 -17.43537,-7.6639 -17.43537,-17.459324 0,-9.771473 7.6639,-17.435373 17.43537,-17.435373 9.77148,0 17.43538,7.6639 17.43538,17.435373 0,2.107573 0,3.496655 -0.69455,5.580278 z M 171.67137,28.595929 v 0 c -22.32111,0 -39.78043,18.153864 -39.78043,40.474974 0,23.734144 18.8484,39.780437 39.06194,39.780437 6.96936,0 16.04629,-2.80211 23.01565,-9.771473 l 18.15387,8.382393 V 69.094853 c 0.024,-22.34506 -18.12992,-40.498924 -40.45103,-40.498924 z M 36.283779,84.422657 H 22.991701 V 35.565288 H 36.23588 c 13.244181,0.694541 23.734141,11.184505 23.734141,24.428683 0.0239,13.244178 -10.41811,23.734146 -23.686242,24.428686 z M 35.565288,12.549637 H 0 v 94.888673 h 35.589238 c 26.536253,0 47.444333,-20.955983 47.444333,-47.444339 C 83.009621,34.176206 62.101541,12.549637 35.565288,12.549637" style="fill:#d4201f;fill-opacity:1;stroke-width:0.23949689"/>
</svg>